<?xml version="1.0" encoding="UTF-8"?>
<svg id="Layer_2" data-name="Layer 2" xmlns="http://www.w3.org/2000/svg" xmlns:xlink="http://www.w3.org/1999/xlink" viewBox="0 0 125.59 42.5">
  <defs>
    <style>
      .cls-1 {
        fill: url(#linear-gradient);
      }

      .cls-2 {
        fill: url(#linear-gradient-2);
      }
    </style>
    <linearGradient id="linear-gradient" x1="11.84" y1="9.36" x2="32.48" y2="9.36" gradientUnits="userSpaceOnUse">
      <stop offset="0" stop-color="#000"/>
      <stop offset=".33" stop-color="#000"/>
      <stop offset=".52" stop-color="#000"/>
      <stop offset=".73" stop-color="#000"/>
      <stop offset="1" stop-color="#000"/>
    </linearGradient>
    <linearGradient id="linear-gradient-2" x1="0" y1="30.24" x2="50.45" y2="30.24" xlink:href="#linear-gradient"/>
  </defs>
  <g id="Objects">
    <g>
      <g>
        <path class="cls-1" d="M22.65,9.24l4.46,7.72c.5,0,1.01-.01,1.52-.01,1.3,0,2.59,.03,3.86,.09L22.65,0,11.84,18.71c1.88-.43,3.87-.79,5.95-1.07l4.86-8.41Zm-8,7.46L22.65,2.84l7.33,12.69c-.45,0-.9-.01-1.35-.01-.23,0-.47,0-.7,0l-4.04-7-1.23-2.13-1.23,2.13-4.51,7.81c-.76,.11-1.52,.23-2.26,.36Z"/>
        <path class="cls-2" d="M16.02,42.5c-5.57-2.45-8.98-5.73-8.98-9.33,0-1.2,.38-2.36,1.09-3.47h31.67l-5.77-9.99c2.19-.18,4.47-.28,6.8-.28,3.14,0,6.17,.17,9.05,.5-.17-.05-.34-.1-.51-.16,.17,.05,.34,.1,.51,.16,.19,.02,.39,.04,.58,.07-.51-.13-1.02-.25-1.55-.37,0,0,0,0,0,0-4.7-1.05-10.12-1.65-15.88-1.66-.03,0-.07,0-.1,0-1.31,0-2.6,.03-3.87,.09-.42,.02-.84,.04-1.26,.07h0c-4.01,.25-7.79,.79-11.18,1.57-.29,.07-.58,.14-.87,.21-2.01,.49-3.88,1.07-5.58,1.73C3.9,24.04,0,27.42,0,31.17c0,4.81,6.42,9.02,16.02,11.33Zm13.01-22.21l2.77,4.79H13.51c3.87-2.16,9.26-3.84,15.52-4.79Z"/>
      </g>
      <g>
        <path d="M59.35,28.25l-.38-2.54h-2.7l-.38,2.54h-2.02l2.24-14h3.22l2.24,14h-2.22Zm-.68-4.44l-1.06-7.08-1.06,7.08h2.12Z"/>
        <path d="M68.97,24.89c0,1.13-.28,2-.84,2.61-.56,.61-1.37,.91-2.44,.91s-1.88-.3-2.44-.91c-.56-.61-.84-1.48-.84-2.61v-7.28c0-1.13,.28-2,.84-2.61,.56-.61,1.37-.91,2.44-.91s1.88,.3,2.44,.91c.56,.61,.84,1.48,.84,2.61v1.36h-2.08v-1.5c0-.92-.38-1.38-1.14-1.38s-1.14,.46-1.14,1.38v7.56c0,.91,.38,1.36,1.14,1.36s1.14-.45,1.14-1.36v-2h2.08v1.86Z"/>
        <path d="M75.53,20.15v2h-3.02v4.1h3.8v2h-6V14.25h6v2h-3.8v3.9h3.02Z"/>
        <path d="M83.83,14.25v2h-2.3v12h-2.2v-12h-2.3v-2h6.8Z"/>
        <path d="M90.01,20.15v2h-3.02v4.1h3.8v2h-6V14.25h6v2h-3.8v3.9h3.02Z"/>
        <path d="M94.35,23.95v4.3h-2.2V14.25h2.2v6.1l2.88-6.1h2.2l-3.06,6.24,3.06,7.76h-2.26l-2.14-5.58-.68,1.28Z"/>
        <path d="M105.73,14.25v14h-2.2V14.25h2.2Z"/>
        <path d="M109.29,28.25h-1.98V14.25h2.76l2.26,8.38V14.25h1.96v14h-2.26l-2.74-10.14v10.14Z"/>
        <path d="M122.25,24.89c0,1.13-.28,2-.84,2.61-.56,.61-1.37,.91-2.44,.91s-1.88-.3-2.44-.91c-.56-.61-.84-1.48-.84-2.61v-7.28c0-1.13,.28-2,.84-2.61,.56-.61,1.37-.91,2.44-.91s1.88,.3,2.44,.91c.56,.61,.84,1.48,.84,2.61v1.36h-2.08v-1.5c0-.92-.38-1.38-1.14-1.38s-1.14,.46-1.14,1.38v7.56c0,.91,.38,1.36,1.14,1.36s1.14-.45,1.14-1.36v-2h2.08v1.86Z"/>
        <path d="M125.59,28.25h-2.12v-2.12h2.12v2.12Z"/>
      </g>
    </g>
  </g>
</svg>