<?xml version="1.0" encoding="utf-8"?>
<!-- Generator: Adobe Illustrator 26.4.1, SVG Export Plug-In . SVG Version: 6.00 Build 0)  -->
<svg version="1.1" id="Layer_2_00000026882506601597768770000011277209952549642167_"
	 xmlns="http://www.w3.org/2000/svg" xmlns:xlink="http://www.w3.org/1999/xlink" x="0px" y="0px" viewBox="0 0 32.4 14.5"
	 style="enable-background:new 0 0 32.4 14.5;" xml:space="preserve">
<style type="text/css">
	.st0{font-family:'CormorantGaramond-Regular';}
	.st1{font-size:5.15px;}
	.st2{fill:#FFFFFF;stroke:#000000;stroke-width:0.1;stroke-miterlimit:10;}
	.st3{clip-path:url(#SVGID_00000160870210815332532520000000070217506868353154_);}
</style>
<text transform="matrix(1 0 0 1 0 12.99)" class="st0 st1">B</text>
<text transform="matrix(1 0 0 1 3.07 12.99)" class="st0 st1">LUE RA</text>
<text transform="matrix(1 0 0 1 21.54 12.99)" class="st0 st1">N</text>
<text transform="matrix(1 0 0 1 25.63 12.99)" class="st0 st1">G</text>
<text transform="matrix(1 0 0 1 29.58 12.99)" class="st0 st1">E</text>
<path class="st2" d="M12.3,3.5L12.1,4C12.2,3.7,12.2,3.5,12.3,3.5C12.3,3.5,12.3,3.5,12.3,3.5z"/>
<path class="st2" d="M12.1,4c0-0.3,0.1-0.4,0.1-0.5c0,0,0,0,0,0"/>
<path class="st2" d="M25.9,6.8l-4.8-2.1l-0.8,0.6l-1.1-0.5l0,0l-2.2-2.3l0,0c-0.1-0.5-0.2-0.8-0.4-1c-0.1-0.1-0.1-0.1,0,0
	c0.1,0.1,0,0,0,0c0,0,0,0,0,0s0,0,0,0c0,0,0,0,0,0c0,0,0,0,0,0l-1.5,1.5l-0.4-0.2l-2.4,2.4l0-1.2l0.1-0.5l0.2-0.2L12.3,3l-0.4-0.3
	c-0.1-0.1-0.1-0.1-0.1-0.1l-1.5,1.8l-1.2,0L6.4,6.8L8.9,4L10,4.1L11.6,2l1.6,1.3l1.4-2.1l0.5,0.2l1.8-1.4l3.5,4.1l0.8-0.8l0.4,0.7
	l0.3-0.2L25.9,6.8L25.9,6.8z"/>
<g>
	<g>
		<g>
			<g>
				<defs>
					<path id="SVGID_1_" d="M14.5,2.7l-2.4,2.4l0-1.2c0-0.3,0.1-0.4,0.1-0.5c0,0,0,0,0,0l0.2-0.2c-0.1-0.2-0.4-0.5-0.5-0.6
						c-0.1-0.1-0.1-0.1-0.1-0.1l-1.5,1.8l-1.2,0L6.4,6.8l3.8-1l0.4,0.8l4.7-1.5"/>
				</defs>
				<use xlink:href="#SVGID_1_"  style="overflow:visible;fill:#FFFFFF;"/>
				<clipPath id="SVGID_00000025412131174494401660000008793004702365409695_">
					<use xlink:href="#SVGID_1_"  style="overflow:visible;"/>
				</clipPath>
				<g style="clip-path:url(#SVGID_00000025412131174494401660000008793004702365409695_);">
					<rect x="6.4" y="2.6" class="st2" width="9" height="4.2"/>
				</g>
				<use xlink:href="#SVGID_1_"  style="overflow:visible;fill:none;stroke:#000000;stroke-width:0.1;stroke-miterlimit:10;"/>
			</g>
			<path class="st2" d="M14.5,2.7l-2.4,2.4l0-1.2c0-0.3,0.1-0.4,0.1-0.5c0,0,0,0,0,0l0.2-0.2c-0.1-0.2-0.4-0.5-0.5-0.6
				c-0.1-0.1-0.1-0.1-0.1-0.1l-1.5,1.8l-1.2,0L6.4,6.8l3.8-1l0.4,0.8l4.7-1.5"/>
		</g>
		<path id="SVGID" class="st2" d="M14.5,2.7l-2.4,2.4l0-1.2c0-0.3,0.1-0.4,0.1-0.5c0,0,0,0,0,0l0.2-0.2c-0.1-0.2-0.4-0.5-0.5-0.6
			c-0.1-0.1-0.1-0.1-0.1-0.1l-1.5,1.8l-1.2,0L6.4,6.8l3.8-1l0.4,0.8l4.7-1.5"/>
	</g>
	<path class="st2" d="M14.5,2.7l-2.4,2.4l0-1.2c0-0.3,0.1-0.4,0.1-0.5c0,0,0,0,0,0l0.2-0.2c-0.1-0.2-0.4-0.5-0.5-0.6
		c-0.1-0.1-0.1-0.1-0.1-0.1l-1.5,1.8l-1.2,0L6.4,6.8l3.8-1l0.4,0.8l4.7-1.5"/>
</g>
<line class="st2" x1="0.8" y1="14.5" x2="32.4" y2="14.5"/>
<line class="st2" x1="0.8" y1="8.6" x2="32.4" y2="8.6"/>
<path class="st2" d="M16.5,1.3L16.5,1.3L16.5,1.3L16.5,1.3C16.5,1.4,16.5,1.4,16.5,1.3l0.1,0.1c0,0,0,0,0,0c0.1,0.2,0.3,0.5,0.4,1
	l0,0l2.2,2.3l0,0l1.1,0.5l0.8-0.6l4.8,2.1l0,0L21.5,6l-3,0.8h-0.8l-0.8-0.5l-1.7-1.1"/>
<path class="st2" d="M16.5,1.4L16.5,1.4L16.5,1.4C16.5,1.3,16.5,1.3,16.5,1.4L16.5,1.4L16.5,1.4L16.5,1.4L16.5,1.4z"/>
<path class="st2" d="M19.2,4.8L19.2,4.8L19.2,4.8z"/>
</svg>
