<?xml version="1.0" encoding="utf-8"?>
<!-- Generator: Adobe Illustrator 26.4.1, SVG Export Plug-In . SVG Version: 6.00 Build 0)  -->
<svg version="1.1" id="Layer_2_00000158010330095152985840000006563920450794362023_"
	 xmlns="http://www.w3.org/2000/svg" xmlns:xlink="http://www.w3.org/1999/xlink" x="0px" y="0px" viewBox="0 0 75.7 15.2"
	 style="enable-background:new 0 0 75.7 15.2;" xml:space="preserve">
<style type="text/css">
	.st0{fill:#F4F4F4;stroke:#000000;stroke-width:0.5;stroke-miterlimit:10;}
	.st1{fill:none;stroke:#000000;stroke-width:0.5;stroke-miterlimit:10;}
	.st2{stroke:#000000;stroke-width:0.5;stroke-miterlimit:10;}
</style>
<g id="Layer_2-2">
	<g id="Layer_1-2">
		<g>
			<g>
				<path class="st0" d="M14.1,11.7v3H1.8c-0.8,0-1.5-0.7-1.5-1.5s0.7-1.5,1.5-1.5H14.1z"/>
				<path class="st0" d="M3,5c0,0.8,0.6,1.4,1.4,1.4h9.7v3H4.4c-0.5,0-1-0.1-1.4-0.2C1.3,8.6,0,6.9,0,5s1.3-3.6,3-4.2
					c0.4-0.2,0.9-0.2,1.4-0.2h9.7v3H4.4C3.7,3.6,3,4.2,3,5L3,5L3,5z"/>
			</g>
			<path class="st0" d="M18.4,7.6c0,2.2,1.8,4.1,4.1,4.1h6.8v3h-6.8c-2.4,0-4.5-1.2-5.8-3c-0.8-1.1-1.3-2.6-1.3-4.1s0.4-2.9,1.3-4.1
				c1.3-1.8,3.4-3,5.8-3h6.8v3h-6.8C20.2,3.6,18.4,5.4,18.4,7.6L18.4,7.6z"/>
			<path class="st0" d="M59.5,3.6c-1.3-1.8-3.4-3-5.8-3h-6.8v14.2h6.8c2.4,0,4.5-1.2,5.8-3c0.8-1.1,1.3-2.6,1.3-4.1
				S60.3,4.7,59.5,3.6z M53.7,11.7H50V3.6h3.8c2.2,0,4.1,1.8,4.1,4.1S56,11.7,53.7,11.7L53.7,11.7z"/>
			<path class="st0" d="M64.8,7.8c0,2.2,1.8,4.1,4.1,4.1h6.8v3h-6.8c-2.4,0-4.5-1.2-5.8-3c-0.8-1.1-1.3-2.6-1.3-4.1s0.4-2.9,1.3-4.1
				c1.3-1.8,3.4-3,5.8-3h6.8v3h-6.8C66.6,3.8,64.8,5.6,64.8,7.8C64.8,7.8,64.8,7.8,64.8,7.8z"/>
			<g>
				<path class="st1" d="M45.4,5v9.7h-3V5l0,0c0-0.1,0-0.2,0-0.3C42.2,4,41.6,3.6,41,3.6c-0.4,0-0.7,0.2-1,0.4
					c-0.2,0.2-0.4,0.6-0.4,1l0,0v9.7h-3V5l0,0c0-0.8-0.6-1.4-1.4-1.4S33.8,4.2,33.8,5l0,0v9.7h-3V5c0-0.5,0.1-0.9,0.2-1.4
					c0.6-1.8,2.2-3,4.2-3c1.1,0,2.2,0.4,2.9,1.1l0,0c0.1-0.1,0.2-0.2,0.2-0.2c0.2-0.2,0.4-0.2,0.6-0.4c0,0,0.1,0,0.2-0.1
					s0.1,0,0.2-0.1c0.4-0.2,0.7-0.2,1.1-0.3c0,0,0.1,0,0.2,0h1.2c0.4,0,0.8,0.2,1.1,0.3c0,0,0.1,0,0.2,0.1c0,0,0.1,0,0.2,0.1
					c0,0,0.1,0,0.2,0.1s0.1,0.1,0.2,0.1c0.1,0.1,0.2,0.2,0.3,0.2l0,0c0.1,0.1,0.2,0.1,0.2,0.2s0.1,0,0.1,0.1c0.6,0.5,1,1.2,1.3,1.9
					C45.4,4,45.5,4.5,45.4,5L45.4,5z"/>
				<path class="st2" d="M45.4,5v9.7h-3V5l0,0c0-0.1,0-0.2,0-0.3C42.2,4,41.6,3.6,41,3.6c-0.4,0-0.7,0.2-1,0.4
					c-0.2,0.2-0.4,0.6-0.4,1l0,0v9.7h-3V5c0-0.5,0.1-0.9,0.2-1.4c0.2-0.8,0.7-1.4,1.3-2c0.1-0.1,0.2-0.2,0.2-0.2
					c0.2-0.2,0.4-0.2,0.6-0.4c0,0,0.1,0,0.2-0.1s0.1,0,0.2-0.1c0.4-0.2,0.7-0.2,1-0.3c0,0,0.1,0,0.2,0h1.2c0.4,0,0.8,0.2,1.1,0.3
					c0,0,0.1,0,0.2,0.1C43,1,43,1,43.1,1c0,0,0.1,0,0.2,0.1s0.1,0.1,0.2,0.1c0.1,0.1,0.2,0.2,0.3,0.2l0,0c0.1,0.1,0.2,0.1,0.2,0.2
					s0.1,0,0.1,0.1c0.6,0.5,1,1.2,1.3,1.9C45.3,4,45.4,4.5,45.4,5L45.4,5L45.4,5z"/>
			</g>
		</g>
	</g>
</g>
</svg>
