<?xml version="1.0" encoding="utf-8"?>
<!-- Generator: Adobe Illustrator 26.4.1, SVG Export Plug-In . SVG Version: 6.00 Build 0)  -->
<svg version="1.1" id="Layer_2_00000099620205314314161150000013557990128250615194_"
	 xmlns="http://www.w3.org/2000/svg" xmlns:xlink="http://www.w3.org/1999/xlink" x="0px" y="0px" viewBox="0 0 14.4 14.4"
	 style="enable-background:new 0 0 14.4 14.4;" xml:space="preserve">
<g id="Layer_2-2_00000183962414112023804140000018212833397610866080_">
	<g id="Layer_2-2">
		<g id="Layer_1-2">
			<path d="M14.4,2.5c0-0.2,0-0.4-0.1-0.6C14,1,13.4,0.4,12.6,0.1C12.2,0,11.9,0,11.6,0H2.8C2.4,0,2.1,0,1.8,0.1
				C0.9,0.4,0,1.3,0,2.7c0,3,0,6,0,9c0,0.4,0,0.7,0.2,1.1c0.1,0.2,0.2,0.5,0.4,0.7c0.5,0.6,1.2,1,2,1h9.2c0.2,0,0.4,0,0.6-0.1
				c0.8-0.2,1.4-0.8,1.8-1.6c0.1-0.3,0.1-0.6,0.2-0.8v-0.2c0,0,0-0.1,0-0.2v-9L14.4,2.5C14.4,2.5,14.4,2.5,14.4,2.5z M6,10.2
				c-1.8,0.1-3.5-1.2-3.7-3C2.1,5.8,2.9,4.5,4.1,3.8c0.6-0.3,1.1-0.4,1.7-0.4h3c0.4,0,0.6,0.2,0.6,0.6S9.2,4.6,8.8,4.6h-3
				c-1,0-1.9,0.7-2.2,1.6C3.3,7.4,4,8.6,5.2,8.9C5.5,9,5.7,9,5.9,9c0.3,0,0.6,0.2,0.6,0.6C6.5,9.9,6.3,10.2,6,10.2
				C6,10.2,6,10.2,6,10.2z M8.8,10.2c-0.4,0-0.7-0.3-0.7-0.6c0-0.3,0-0.6-0.1-0.9C7.8,7.9,7.2,7.6,6.5,7.4c-0.2,0-0.5,0-0.7,0
				C5.6,7.4,5.3,7.2,5.2,7s0-0.5,0.2-0.6c0.1-0.1,0.3-0.2,0.4-0.2c0.7,0,1.4,0,2,0.4C8.8,7,9.2,7.7,9.4,8.6c0,0.1,0,0.1,0,0.2
				c0,0.1,0,0.2,0,0.4l0,0v0.3C9.4,9.9,9.2,10.2,8.8,10.2C8.8,10.2,8.8,10.2,8.8,10.2z M11.4,9.6c0,0.4-0.3,0.6-0.6,0.6
				s-0.6-0.3-0.6-0.6V4.1c0-0.4,0.2-0.6,0.6-0.6s0.6,0.2,0.6,0.6C11.4,5.9,11.4,7.7,11.4,9.6C11.4,9.6,11.4,9.6,11.4,9.6z"/>
		</g>
	</g>
</g>
</svg>
