<?xml version="1.0" encoding="utf-8"?>
<!-- Generator: Adobe Illustrator 26.4.1, SVG Export Plug-In . SVG Version: 6.00 Build 0)  -->
<svg version="1.1" id="Layer_2_00000101819995296918782980000013219523675616851850_"
	 xmlns="http://www.w3.org/2000/svg" xmlns:xlink="http://www.w3.org/1999/xlink" x="0px" y="0px" viewBox="0 0 82.3 14.6"
	 style="enable-background:new 0 0 82.3 14.6;" xml:space="preserve">
<style type="text/css">
	.st0{stroke:#000000;stroke-width:0.25;stroke-miterlimit:10;}
</style>
<g id="Layer_2-2_00000134238882833738249270000005446143143534019237_">
	<g id="Layer_2-2">
		<g id="Layer_1-2">
			<g>
				<path class="st0" d="M16.3,12.8c-0.8,0.6-1.5,1.1-2.3,1.3c-0.8,0.3-1.5,0.4-2.2,0.4s-1.6-0.1-2.4-0.3C8.6,14,7.8,13.8,7,13.5
					s-1.6-0.5-2.5-0.7c-0.8-0.2-1.7-0.4-2.6-0.4H0.1v-0.1c0.4,0,0.7,0,0.8-0.1s0.3-0.3,0.3-0.6V3.1c0-0.2,0-0.4-0.1-0.4
					C1.1,2.6,1,2.5,1,2.4S0.8,2.4,0.6,2.4H0.1V2.2H3v0.1H2.5c-0.2,0-0.3,0-0.4,0.1S2,2.6,2,2.7c0,0.1-0.1,0.2-0.1,0.4v8.4
					c0,0.3,0.1,0.5,0.2,0.6c0.1,0.1,0.3,0.2,0.6,0.2H3c0.8,0.1,1.6,0.2,2.3,0.4s1.5,0.4,2.3,0.5c0.8,0.2,1.5,0.4,2.2,0.4
					c0.7,0.2,1.5,0.2,2.2,0.2s1.4-0.1,2.1-0.3c0.7-0.2,1.4-0.5,2.1-0.9L16.3,12.8L16.3,12.8L16.3,12.8z"/>
				<path class="st0" d="M15.9,10l-0.7,2.4h-8v-0.1c0.4,0,0.7,0,0.9-0.1s0.3-0.3,0.3-0.6V3c0-0.2,0-0.4-0.1-0.4
					c0-0.1-0.1-0.2-0.2-0.2S7.9,2.3,7.7,2.3H7.3V2.2h7.4l0.7,2.4l-0.1,0c-0.2-0.6-0.3-1-0.4-1.3c-0.1-0.3-0.3-0.5-0.4-0.7
					c-0.2-0.2-0.4-0.2-0.6-0.3c-0.2,0-0.5,0-0.9,0H9.1v4.6h2.4c0.4,0,0.6,0,0.8-0.2c0.2-0.1,0.2-0.3,0.3-0.6h0.1v1.6h-0.1
					c-0.1-0.3-0.2-0.4-0.3-0.6s-0.4-0.2-0.8-0.2H9.1v4.4c0,0.4,0.1,0.5,0.2,0.6s0.4,0.1,0.6,0.1h3.6c0.4,0,0.7,0,1,0
					s0.4-0.1,0.5-0.3s0.3-0.4,0.4-0.7c0.1-0.3,0.3-0.7,0.4-1.2H15.9L15.9,10z"/>
				<path class="st0" d="M30.3,10.5c0,0.6-0.1,1.2-0.4,1.7c-0.3,0.5-0.6,0.9-1,1.2c-0.4,0.4-0.9,0.6-1.5,0.7
					c-0.5,0.2-1.1,0.2-1.7,0.2s-1.1-0.1-1.6-0.2s-1-0.4-1.4-0.7c-0.4-0.3-0.8-0.6-1-1.1c-0.3-0.4-0.4-1-0.4-1.5
					c0-0.4,0.1-0.7,0.2-1.1c0.1-0.4,0.3-0.7,0.5-1C22,8.5,22.2,8.3,22.6,8c0.3-0.2,0.6-0.4,1.1-0.4l0,0.1c-0.6,0.2-1,0.5-1.3,1.1
					C22.1,9.2,22,9.8,22,10.5s0.1,1.2,0.4,1.6c0.2,0.4,0.5,0.8,0.9,1.2c0.4,0.3,0.8,0.5,1.2,0.7s0.9,0.2,1.4,0.2s0.9-0.1,1.4-0.2
					s0.8-0.4,1.2-0.7c0.4-0.3,0.6-0.7,0.8-1.2c0.2-0.4,0.3-1,0.3-1.6c0-0.6-0.2-1.2-0.5-1.7c-0.4-0.4-0.7-0.9-1.2-1.2
					c-0.5-0.4-1-0.7-1.6-1s-1.1-0.6-1.6-1s-0.9-0.7-1.2-1.2S23,3.4,23,2.8c0-0.4,0.1-0.8,0.2-1.2s0.4-0.6,0.6-0.8
					c0.3-0.2,0.6-0.4,1-0.5c0.4-0.1,0.7-0.2,1.1-0.2c0.6,0,1.2,0.1,1.8,0.4c0.2,0.1,0.4,0.2,0.6,0.3s0.3,0.1,0.4,0.1
					c0.2,0,0.3-0.2,0.4-0.4h0.1v2.1H29c-0.1-0.4-0.3-0.7-0.4-1c-0.2-0.3-0.4-0.5-0.8-0.7c-0.3-0.2-0.6-0.4-0.9-0.4
					c-0.3-0.1-0.6-0.2-1-0.2s-0.6,0-1,0.2c-0.3,0.1-0.6,0.2-0.8,0.4c-0.2,0.2-0.4,0.4-0.5,0.6c-0.2,0.3-0.2,0.6-0.2,0.9
					C23.4,3,23.6,3.6,24,4s0.8,0.8,1.3,1.2s1.1,0.7,1.7,1s1.2,0.7,1.7,1.1s1,0.8,1.3,1.3C30.1,9.2,30.3,9.8,30.3,10.5L30.3,10.5
					L30.3,10.5z"/>
				<path class="st0" d="M40.1,10l-0.7,2.4h-8v-0.1c0.4,0,0.7,0,0.8-0.1s0.3-0.3,0.3-0.6V3c0-0.2,0-0.4-0.1-0.4
					c0-0.1-0.1-0.2-0.2-0.2s-0.2-0.1-0.4-0.1h-0.5V2.2h7.4l0.7,2.4l-0.1,0c-0.2-0.6-0.4-1-0.4-1.3c-0.1-0.3-0.3-0.5-0.4-0.7
					c-0.2-0.2-0.4-0.2-0.6-0.3c-0.2,0-0.5,0-0.9,0h-3.9v9.1c0,0.4,0.1,0.5,0.2,0.6s0.4,0.1,0.6,0.1h3.6c0.4,0,0.7,0,1-0.1
					c0.2,0,0.4-0.1,0.5-0.3c0.2-0.2,0.3-0.4,0.4-0.7C39.7,10.9,39.9,10.5,40.1,10L40.1,10L40.1,10z M43,11.5c0,0.4,0.1,0.6,0.3,0.6
					s0.4,0.1,0.9,0.1v0.1h-2.9v-0.1c0.4,0,0.7,0,0.9-0.1s0.3-0.3,0.3-0.6V7.6h-5.2c-0.4,0-0.6,0-0.8,0.2s-0.2,0.3-0.3,0.6h-0.1V6.7
					h0.1c0,0.3,0.2,0.4,0.3,0.6s0.4,0.2,0.7,0.2h5.3V3c0-0.2,0-0.4-0.1-0.4c0-0.1-0.1-0.2-0.2-0.2s-0.2-0.1-0.4-0.1h-0.5V2.2h3.9
					c1.3,0,2.3,0.2,2.9,0.7s1,1.2,1,2c0,0.7-0.3,1.3-0.8,1.8C47.8,7.2,47,7.5,46,7.6c0.5,0.1,0.9,0.3,1.2,0.6c0.4,0.3,0.7,0.6,1,1
					s0.5,0.7,0.7,1.1s0.4,0.7,0.5,1c0.2,0.3,0.4,0.6,0.5,0.8c0.2,0.2,0.4,0.3,0.6,0.3v0.1H49c-0.2-0.4-0.4-0.8-0.6-1.4
					c-0.2-0.5-0.5-1.1-0.8-1.6c-0.4-0.5-0.7-1-1.1-1.3c-0.4-0.4-0.9-0.5-1.4-0.5H43L43,11.5L43,11.5L43,11.5z M43,7.5h2.1
					c0.5,0,1-0.1,1.4-0.2c0.4-0.2,0.7-0.3,1-0.5c0.3-0.2,0.4-0.5,0.6-0.8c0.1-0.3,0.2-0.6,0.2-1c0-0.8-0.3-1.3-0.8-1.8
					s-1.3-0.7-2.3-0.7H43L43,7.5L43,7.5L43,7.5z"/>
				<path class="st0" d="M60.6,10l-0.7,2.4h-8v-0.1c0.4,0,0.7,0,0.9-0.1s0.3-0.3,0.3-0.6V3c0-0.2,0-0.4-0.1-0.4
					c0-0.1-0.1-0.2-0.2-0.2s-0.2-0.1-0.4-0.1h-0.5V2.2h7.4l0.7,2.4l-0.1,0c-0.2-0.6-0.3-1-0.4-1.3c-0.1-0.3-0.3-0.5-0.4-0.7
					c-0.2-0.2-0.4-0.2-0.6-0.3c-0.2,0-0.5,0-0.9,0h-4v4.6h2.4c0.4,0,0.6,0,0.8-0.2c0.2-0.1,0.2-0.3,0.3-0.6h0.1v1.6h-0.1
					c-0.1-0.3-0.2-0.4-0.3-0.6s-0.4-0.2-0.8-0.2h-2.4v4.4c0,0.4,0.1,0.5,0.2,0.6s0.4,0.1,0.6,0.1h3.6c0.4,0,0.7,0,1,0
					c0.2,0,0.4-0.1,0.5-0.3s0.3-0.4,0.4-0.7c0.1-0.3,0.3-0.7,0.4-1.2C60.5,10,60.6,10,60.6,10z"/>
				<path class="st0" d="M70.9,11.7v0.9h-0.2L63.4,3v8.6c0,0.2,0,0.4,0.1,0.4c0.1,0.1,0.2,0.2,0.3,0.2s0.2,0.1,0.4,0.1h0.4v0.1h-2.4
					v-0.1h0.4c0.2,0,0.3,0,0.4-0.1c0.1,0,0.2-0.1,0.3-0.2c0.1-0.1,0.1-0.2,0.1-0.4V3c0-0.2,0-0.4-0.1-0.4c-0.1-0.1-0.2-0.2-0.3-0.2
					s-0.2-0.1-0.4-0.1h-0.4V2.2h1.6l7,9.2V3c0-0.2,0-0.4-0.1-0.4c-0.1-0.1-0.2-0.2-0.3-0.2S70.1,2.3,70,2.3h-0.4V2.2H72v0.1h-0.4
					c-0.2,0-0.3,0-0.4,0.1c-0.1,0-0.2,0.1-0.3,0.2c-0.1,0.1-0.1,0.2-0.1,0.4L70.9,11.7L70.9,11.7z"/>
				<path class="st0" d="M82.1,10l-0.7,2.4h-8v-0.1c0.4,0,0.7,0,0.9-0.1s0.3-0.3,0.3-0.6V3c0-0.2,0-0.4-0.1-0.4
					c0-0.1-0.1-0.2-0.2-0.2S74.1,2.3,74,2.3h-0.5V2.2h7.4l0.7,2.4l-0.1,0c-0.2-0.6-0.3-1-0.4-1.3c-0.1-0.3-0.3-0.5-0.4-0.7
					c-0.2-0.2-0.4-0.2-0.6-0.3c-0.2,0-0.5,0-0.9,0h-3.9v4.6h2.4c0.4,0,0.6,0,0.8-0.2c0.2-0.1,0.2-0.3,0.3-0.6h0.1v1.6h-0.1
					c-0.1-0.3-0.2-0.4-0.3-0.6S78,7.2,77.7,7.2h-2.4v4.4c0,0.4,0.1,0.5,0.2,0.6s0.4,0.1,0.6,0.1h3.6c0.4,0,0.7,0,1,0
					s0.4-0.1,0.5-0.3c0.1-0.2,0.3-0.4,0.4-0.7c0.1-0.3,0.3-0.7,0.4-1.2H82.1L82.1,10z"/>
			</g>
		</g>
	</g>
</g>
</svg>
