<?xml version="1.0" encoding="UTF-8"?>
<svg id="Layer_2" data-name="Layer 2" xmlns="http://www.w3.org/2000/svg" xmlns:xlink="http://www.w3.org/1999/xlink" viewBox="0 0 115.91 31.13">
  <defs>
    <style>
      .cls-1 {
        fill: url(#linear-gradient);
      }

      .cls-2 {
        fill: url(#linear-gradient-2);
      }
    </style>
    <linearGradient id="linear-gradient" x1="0" y1="14.86" x2="19.01" y2="14.86" gradientUnits="userSpaceOnUse">
      <stop offset="0" stop-color="#000"/>
      <stop offset=".33" stop-color="#000"/>
      <stop offset=".52" stop-color="#000"/>
      <stop offset=".73" stop-color="#000"/>
      <stop offset="1" stop-color="#000"/>
    </linearGradient>
    <linearGradient id="linear-gradient-2" x1="16.34" y1="16.5" x2="35.35" y2="16.5" xlink:href="#linear-gradient"/>
  </defs>
  <g id="Objects">
    <g>
      <path class="cls-1" d="M14.9,2.68s.08,0,.13,0c.24,0,.48,.02,.73,.04,1.13,.08,2.22,.25,3.25,.49V.6c-1.05-.27-2.18-.45-3.36-.53-.43-.03-.89-.05-1.36-.06-.13,0-.25,0-.38,0h-.01c-2.2,0-4.47,.29-6.74,.86C4.58,1.51,2.12,2.51,0,3.76V29.72c2.06-1.13,4.4-2.03,6.82-2.64,1.91-.48,3.84-.78,5.73-.87h.02s0,0,0,0c.02,0,.03,0,.05,0,.32-.02,.65-.03,.98-.03v-2.66c-2.44,.02-4.94,.36-7.44,.98-.9,.23-1.77,.48-2.59,.76l-.92,.32V5.33l.4-.19c1.49-.71,3.08-1.28,4.75-1.7,1.65-.42,3.3-.67,4.9-.75,.03,0,.06,0,.08,0,.37-.02,.74-.03,1.11-.03,.14,0,.27,0,.4,0h.02c.19,0,.39,0,.58,.02Z"/>
      <path class="cls-2" d="M21.45,5.42c-.61,0-1.22-.02-1.8-.06-.71-.05-1.41-.14-2.09-.25-.41-.07-.82-.15-1.22-.24V30.53c1.56,.4,3.27,.6,5.11,.6,2.2,0,4.47-.29,6.74-.86,2.57-.65,5.04-1.65,7.16-2.89V1.87c-2.06,1.13-4.4,2.03-6.82,2.65-2.38,.6-4.76,.9-7.08,.9Zm10.32,.44l.92-.31V25.8l-.4,.19c-1.48,.71-3.08,1.28-4.75,1.7-2.06,.52-4.1,.78-6.09,.78-.61,0-1.22-.03-1.81-.08l-.64-.06v-2.45h0s0-17.63,0-17.63v-.74l.74,.05c.54,.03,1.1,.05,1.7,.05,2.54,0,5.14-.33,7.73-.99,.87-.22,1.74-.48,2.59-.76Z"/>
    </g>
    <g>
      <path d="M44.34,4.56v7.82h-1.57V4.56h1.57Zm2.77,6.52v1.3h-3.25v-1.3h3.25Z"/>
      <path d="M50.3,12.49c-.4,0-.75-.06-1.06-.18-.31-.12-.56-.3-.78-.53-.21-.23-.37-.51-.48-.84s-.17-.71-.17-1.13v-.48c0-.47,.05-.89,.16-1.24,.11-.36,.26-.66,.46-.9s.44-.43,.73-.55c.29-.12,.61-.18,.98-.18s.69,.06,.96,.18c.28,.12,.51,.3,.69,.54,.18,.24,.32,.53,.41,.88s.14,.76,.14,1.22v.69h-3.89v-1.06h2.42v-.13c0-.24-.02-.43-.08-.59-.05-.16-.13-.28-.24-.36s-.25-.12-.43-.12c-.15,0-.28,.03-.38,.09s-.19,.16-.25,.28-.11,.3-.13,.5c-.03,.21-.04,.45-.04,.74v.48c0,.27,.02,.49,.07,.67,.05,.18,.12,.33,.21,.44,.09,.11,.2,.19,.34,.24,.13,.05,.29,.07,.46,.07,.27,0,.5-.05,.72-.14,.21-.1,.39-.23,.54-.39l.6,.91c-.1,.14-.25,.27-.43,.41s-.4,.25-.66,.33-.55,.13-.88,.13Z"/>
      <path d="M54.31,6.57l.95,4.66,.02,1.15h-.95l-1.6-5.81h1.57Zm.55,4.65l.93-4.65h1.57l-1.6,5.81h-.94l.03-1.16Z"/>
      <path d="M60.36,12.49c-.4,0-.75-.06-1.06-.18-.31-.12-.56-.3-.78-.53-.21-.23-.37-.51-.48-.84s-.17-.71-.17-1.13v-.48c0-.47,.05-.89,.16-1.24,.11-.36,.26-.66,.46-.9s.44-.43,.73-.55c.29-.12,.61-.18,.98-.18s.69,.06,.96,.18c.28,.12,.51,.3,.69,.54,.18,.24,.32,.53,.41,.88s.14,.76,.14,1.22v.69h-3.89v-1.06h2.42v-.13c0-.24-.02-.43-.08-.59-.05-.16-.13-.28-.24-.36s-.25-.12-.43-.12c-.15,0-.28,.03-.38,.09s-.19,.16-.25,.28-.11,.3-.13,.5c-.03,.21-.04,.45-.04,.74v.48c0,.27,.02,.49,.07,.67,.05,.18,.12,.33,.21,.44,.09,.11,.2,.19,.34,.24,.13,.05,.29,.07,.46,.07,.27,0,.5-.05,.72-.14,.21-.1,.39-.23,.54-.39l.6,.91c-.1,.14-.25,.27-.43,.41s-.4,.25-.66,.33-.55,.13-.88,.13Z"/>
      <path d="M64.86,4.13V12.38h-1.51V4.13h1.51Z"/>
      <path d="M68.63,10.81c0-.1-.03-.19-.1-.27-.07-.08-.17-.16-.32-.24-.15-.08-.34-.18-.58-.28-.26-.11-.5-.22-.7-.33-.2-.11-.38-.24-.52-.38-.14-.14-.25-.3-.32-.48-.07-.18-.11-.38-.11-.61,0-.25,.05-.48,.14-.68,.09-.21,.22-.39,.39-.55,.17-.16,.38-.28,.63-.38,.25-.09,.53-.14,.84-.14,.44,0,.81,.08,1.12,.23,.31,.15,.55,.36,.72,.64s.25,.59,.25,.95h-1.5c0-.13-.02-.24-.06-.35-.04-.1-.1-.18-.19-.24-.09-.06-.21-.09-.35-.09-.11,0-.2,.02-.29,.07s-.15,.11-.2,.19c-.05,.08-.07,.17-.07,.27,0,.08,.02,.15,.05,.21s.09,.12,.16,.18c.08,.06,.18,.12,.3,.18,.13,.06,.28,.13,.47,.21,.39,.14,.71,.3,.95,.46s.43,.36,.56,.58c.12,.22,.18,.49,.18,.81,0,.26-.05,.49-.15,.7s-.24,.39-.43,.55c-.19,.15-.41,.27-.67,.35s-.55,.12-.87,.12c-.47,0-.87-.09-1.19-.28s-.57-.43-.73-.72c-.16-.29-.25-.6-.25-.91h1.43c0,.19,.04,.34,.11,.45,.07,.11,.16,.19,.27,.23,.12,.04,.24,.06,.38,.06s.25-.02,.35-.06c.09-.04,.16-.1,.21-.18,.05-.08,.07-.17,.07-.28Z"/>
      <path d="M75.23,4.56v7.82h-1.57V4.56h1.57Zm2.9,0v1.31h-3.39v-1.31h3.39Zm-.45,3.17v1.26h-2.94v-1.26h2.94Zm.46,3.35v1.3h-3.4v-1.3h3.4Z"/>
      <path d="M78.68,9.68v-.39c0-.47,.04-.89,.12-1.24,.08-.35,.2-.65,.36-.89,.16-.24,.36-.41,.59-.53,.23-.12,.5-.17,.81-.17,.28,0,.52,.07,.73,.21,.21,.14,.39,.33,.54,.58,.15,.25,.26,.54,.35,.88,.09,.34,.15,.71,.19,1.11v.56c-.04,.38-.11,.73-.2,1.06s-.21,.62-.35,.86-.33,.43-.53,.57c-.21,.14-.45,.21-.72,.21-.3,0-.57-.06-.81-.18s-.43-.3-.59-.54c-.16-.24-.28-.53-.36-.88-.08-.35-.12-.75-.12-1.21Zm1.5-.39v.39c0,.27,.01,.51,.04,.7,.03,.2,.07,.35,.13,.48,.06,.12,.15,.21,.25,.27,.1,.06,.23,.09,.39,.09,.2,0,.36-.05,.49-.15,.12-.1,.22-.24,.28-.42,.06-.18,.1-.39,.11-.63v-1.02c0-.2-.03-.37-.07-.53s-.09-.29-.17-.4c-.07-.11-.16-.2-.27-.26s-.23-.09-.37-.09c-.15,0-.28,.03-.38,.09s-.19,.15-.25,.28c-.06,.13-.11,.29-.14,.49-.03,.2-.05,.44-.05,.71Zm1.51,1.8V4.13h1.51V12.38h-1.37s-.14-1.28-.14-1.28Z"/>
      <path d="M87.31,9.79h.42c0,.38-.04,.74-.11,1.07-.08,.33-.19,.62-.34,.86s-.34,.43-.56,.57c-.23,.13-.5,.2-.8,.2-.24,0-.45-.04-.65-.12-.2-.08-.37-.21-.51-.38-.14-.17-.25-.4-.34-.67-.08-.27-.12-.6-.12-.99v-3.76h1.51v3.77c0,.16,.01,.29,.04,.41,.03,.11,.07,.21,.12,.28s.11,.12,.18,.15c.07,.03,.14,.05,.23,.05,.24,0,.42-.06,.56-.19,.14-.12,.24-.29,.29-.51,.06-.22,.09-.46,.09-.74Zm-.17,1.2V6.57h1.51v5.81h-1.42l-.09-1.4Z"/>
      <path d="M91.83,11.24c.14,0,.26-.03,.36-.09,.1-.06,.18-.15,.23-.28s.08-.3,.09-.5h1.41c0,.44-.09,.81-.28,1.13-.18,.32-.43,.56-.74,.73-.31,.17-.66,.25-1.05,.25s-.73-.06-1.02-.19-.53-.31-.72-.55c-.19-.24-.33-.53-.42-.88-.09-.35-.14-.74-.14-1.19v-.42c0-.44,.05-.83,.14-1.18s.24-.64,.42-.88c.19-.24,.43-.42,.71-.55s.63-.19,1.02-.19c.42,0,.78,.09,1.09,.26,.31,.17,.55,.43,.72,.77s.26,.75,.26,1.25h-1.41c0-.22-.03-.41-.08-.56-.05-.15-.12-.26-.22-.34-.1-.08-.23-.12-.39-.12s-.3,.03-.41,.1c-.1,.07-.18,.17-.23,.3-.05,.13-.09,.29-.1,.49s-.03,.41-.03,.66v.42c0,.26,0,.49,.02,.68,.02,.19,.05,.35,.1,.48,.05,.13,.13,.23,.23,.29,.1,.06,.24,.1,.42,.1Z"/>
      <path d="M97.54,8.83v.9s-.55,0-.55,0c-.14,0-.27,.02-.37,.07s-.19,.11-.27,.2c-.07,.08-.12,.18-.16,.29s-.05,.23-.05,.35c0,.14,.02,.26,.06,.35s.1,.17,.18,.22c.08,.05,.17,.08,.28,.08,.17,0,.31-.03,.43-.1,.12-.07,.21-.15,.27-.25,.06-.1,.08-.19,.06-.27l.34,.59c-.04,.13-.1,.27-.17,.41s-.17,.28-.28,.4-.25,.22-.41,.3c-.16,.08-.36,.12-.58,.12-.31,0-.6-.07-.85-.21s-.46-.34-.61-.6-.22-.56-.22-.92c0-.29,.05-.56,.14-.8,.09-.24,.24-.44,.43-.61,.19-.17,.43-.29,.72-.38s.63-.13,1.02-.13h.6Zm-.18,2.21v-2.69c0-.18-.02-.31-.06-.42s-.1-.18-.18-.23c-.08-.05-.18-.07-.29-.07-.13,0-.24,.03-.32,.08s-.15,.13-.19,.23-.06,.22-.06,.36h-1.51c0-.25,.05-.49,.14-.71,.1-.22,.24-.42,.43-.59,.19-.17,.41-.3,.67-.4,.26-.1,.55-.15,.88-.15,.39,0,.73,.07,1.03,.2,.3,.13,.54,.34,.71,.62s.26,.65,.26,1.1v2.59c0,.33,.02,.59,.05,.79s.08,.38,.15,.53v.09h-1.52c-.07-.16-.12-.36-.15-.6-.03-.24-.05-.49-.05-.73Z"/>
      <path d="M102.51,6.57v1.13h-2.96v-1.13h2.96Zm-2.28-1.43h1.5v5.47c0,.16,.02,.28,.05,.37,.03,.09,.08,.15,.15,.18,.07,.03,.15,.05,.26,.05,.08,0,.15,0,.21-.01,.06,0,.11-.02,.15-.03v1.18c-.12,.05-.24,.08-.37,.11s-.29,.04-.46,.04c-.3,0-.56-.06-.78-.17-.22-.11-.39-.3-.51-.55-.12-.25-.18-.59-.18-1V5.14Z"/>
      <path d="M103.35,5.06c0-.23,.07-.42,.22-.57s.35-.23,.6-.23,.45,.08,.6,.23c.15,.15,.22,.34,.22,.57s-.07,.43-.22,.58c-.15,.15-.35,.23-.6,.23s-.46-.08-.6-.23c-.15-.15-.22-.34-.22-.58Zm1.58,1.51v5.81h-1.51V6.57h1.51Z"/>
      <path d="M105.95,9.67v-.39c0-.45,.05-.86,.16-1.21s.27-.65,.47-.88c.2-.24,.45-.42,.74-.54,.29-.12,.61-.19,.97-.19s.69,.06,.97,.19c.29,.12,.54,.3,.74,.54,.21,.24,.36,.53,.48,.88s.17,.75,.17,1.21v.39c0,.45-.05,.85-.17,1.2s-.27,.65-.48,.89-.45,.42-.74,.54-.61,.18-.97,.18-.68-.06-.97-.18-.54-.3-.74-.54c-.21-.24-.37-.54-.47-.89s-.16-.75-.16-1.2Zm1.5-.39v.39c0,.27,.02,.5,.06,.7,.04,.2,.09,.36,.17,.49s.16,.22,.27,.28c.1,.06,.22,.09,.36,.09s.26-.03,.37-.09,.2-.16,.27-.28c.07-.13,.12-.29,.16-.49s.05-.43,.05-.7v-.39c0-.26-.02-.49-.06-.69-.04-.2-.09-.36-.17-.49-.07-.13-.16-.22-.27-.29-.11-.07-.22-.1-.36-.1s-.25,.03-.35,.1c-.1,.07-.19,.16-.26,.29-.07,.13-.13,.29-.17,.49-.04,.2-.06,.43-.06,.69Z"/>
      <path d="M113.07,7.81v4.57h-1.51V6.57h1.41l.1,1.24Zm-.22,1.47h-.4c0-.43,.04-.82,.13-1.17,.09-.35,.22-.64,.39-.89,.17-.25,.37-.43,.61-.56,.24-.13,.5-.2,.8-.2,.22,0,.43,.04,.62,.12,.19,.08,.35,.2,.49,.38,.14,.17,.24,.4,.32,.68s.11,.63,.11,1.05v3.7h-1.51v-3.71c0-.25-.03-.44-.08-.58-.05-.14-.12-.23-.22-.29-.1-.06-.22-.08-.38-.08-.14,0-.27,.04-.38,.12-.11,.08-.2,.19-.28,.33-.07,.14-.13,.31-.17,.5-.04,.19-.05,.39-.05,.61Z"/>
      <path d="M42.87,22.49v-.08c0-.7,.06-1.36,.19-1.96,.13-.61,.29-1.16,.5-1.64,.21-.49,.43-.9,.67-1.24,.24-.34,.48-.59,.71-.76l.14,.45c-.19,.16-.39,.41-.58,.73-.19,.32-.37,.7-.52,1.15s-.28,.94-.37,1.49c-.09,.55-.14,1.14-.14,1.77v.11c0,.63,.05,1.23,.14,1.78,.09,.55,.22,1.05,.37,1.5s.33,.83,.52,1.16c.19,.32,.38,.57,.58,.75l-.14,.42c-.23-.16-.46-.41-.71-.75-.24-.33-.47-.74-.67-1.22-.21-.48-.38-1.03-.5-1.64-.13-.61-.19-1.28-.19-2Z"/>
      <path d="M48.54,22.4h-1.85v-.58h1.85c.38,0,.69-.08,.93-.23,.24-.15,.41-.36,.52-.61,.11-.26,.16-.55,.16-.87s-.05-.61-.16-.88c-.11-.27-.28-.48-.52-.65-.24-.16-.55-.24-.93-.24h-1.65v7.25h-.62v-7.82h2.27c.48,0,.89,.1,1.22,.3,.33,.2,.58,.47,.75,.82,.17,.35,.26,.76,.26,1.22s-.08,.89-.26,1.24c-.17,.35-.42,.61-.75,.79s-.74,.27-1.22,.27Z"/>
      <path d="M52.25,19.77l1.54,5.19,.09,.62h-.43l-1.82-5.81h.62Zm1.35,5.18l1.52-5.18h.61l-1.8,5.81h-.44l.11-.63Z"/>
      <path d="M58.7,19.77v.54h-2.48v-.54h2.48Zm-1.59-1.49h.6v5.88c0,.27,.03,.48,.09,.61s.13,.23,.23,.27c.09,.04,.2,.07,.31,.07,.08,0,.15,0,.23-.02,.07-.01,.14-.02,.2-.04l.02,.55c-.06,.02-.15,.05-.26,.06s-.22,.03-.33,.03c-.2,0-.39-.05-.55-.14-.16-.09-.29-.25-.38-.47-.1-.22-.14-.52-.14-.91v-5.88Z"/>
      <path d="M60,25.18c0-.13,.04-.23,.12-.32,.08-.09,.19-.13,.34-.13s.25,.04,.33,.13c.08,.09,.12,.19,.12,.32s-.04,.23-.12,.32c-.08,.09-.19,.13-.33,.13-.15,0-.26-.04-.34-.13-.08-.09-.12-.19-.12-.32Z"/>
      <path d="M64.31,22.41v.08c0,.72-.06,1.39-.19,2-.13,.61-.29,1.16-.5,1.64-.21,.48-.43,.89-.67,1.22-.24,.33-.47,.58-.7,.75l-.15-.42c.2-.17,.39-.41,.58-.74,.19-.32,.36-.71,.52-1.16s.28-.95,.38-1.5,.14-1.15,.14-1.78v-.11c0-.63-.05-1.22-.15-1.77-.1-.55-.23-1.05-.39-1.5-.16-.45-.34-.84-.52-1.16-.19-.32-.38-.57-.56-.73l.15-.42c.23,.16,.46,.42,.7,.76s.46,.75,.67,1.24c.21,.49,.37,1.04,.5,1.64,.13,.61,.19,1.26,.19,1.96Z"/>
      <path d="M69.14,17.76v7.82h-.62v-7.82h.62Zm3.21,7.25v.57h-3.38v-.57h3.38Z"/>
      <path d="M75.38,19.77v.54h-2.48v-.54h2.48Zm-1.59-1.49h.6v5.88c0,.27,.03,.48,.09,.61s.13,.23,.23,.27c.09,.04,.2,.07,.31,.07,.08,0,.16,0,.23-.02s.14-.02,.2-.04l.02,.55c-.06,.02-.15,.05-.26,.06s-.22,.03-.33,.03c-.2,0-.39-.05-.55-.14-.16-.09-.29-.25-.38-.47-.09-.22-.14-.52-.14-.91v-5.88Z"/>
      <path d="M76.47,22.95v-.54c0-.49,.04-.9,.13-1.25,.09-.35,.21-.63,.38-.85s.36-.38,.6-.48,.5-.16,.79-.16,.53,.05,.74,.16,.39,.25,.54,.45,.27,.42,.37,.69,.16,.57,.2,.9v1.73c-.04,.3-.1,.59-.19,.85-.09,.26-.21,.48-.37,.67s-.34,.33-.56,.44c-.22,.1-.47,.16-.76,.16s-.55-.06-.78-.17c-.23-.11-.43-.28-.6-.5s-.29-.51-.38-.85-.13-.75-.13-1.22Zm.6-.54v.54c0,.37,.03,.69,.09,.96,.06,.27,.14,.5,.26,.67,.11,.18,.26,.31,.43,.4,.18,.09,.38,.13,.62,.13,.3,0,.56-.06,.76-.19,.2-.13,.37-.3,.49-.5,.12-.21,.21-.44,.27-.69v-1.99c-.03-.17-.08-.35-.15-.52-.07-.18-.16-.34-.28-.49s-.26-.27-.44-.36c-.18-.09-.39-.14-.64-.14s-.46,.04-.63,.13c-.18,.09-.33,.22-.44,.4s-.2,.4-.25,.67c-.06,.27-.08,.59-.08,.97Zm2.77,2.05v-7.12h.6v8.25h-.56l-.04-1.13Z"/>
    </g>
  </g>
</svg>