<?xml version="1.0" encoding="UTF-8"?>
<svg id="Layer_2" data-name="Layer 2" xmlns="http://www.w3.org/2000/svg" xmlns:xlink="http://www.w3.org/1999/xlink" viewBox="0 0 96.49 27.99">
  <defs>
    <style>
      .cls-1 {
        fill: url(#linear-gradient);
      }

      .cls-2 {
        fill: url(#linear-gradient-3);
      }

      .cls-3 {
        fill: url(#linear-gradient-2);
      }
    </style>
    <linearGradient id="linear-gradient" x1="0" y1="14.1" x2="28.08" y2="14.1" gradientUnits="userSpaceOnUse">
      <stop offset="0" stop-color="#000"/>
      <stop offset=".33" stop-color="#000"/>
      <stop offset=".52" stop-color="#000"/>
      <stop offset=".73" stop-color="#000"/>
      <stop offset="1" stop-color="#000"/>
    </linearGradient>
    <linearGradient id="linear-gradient-2" x1="0" y1="7.3" x2="9.65" y2="7.3" xlink:href="#linear-gradient"/>
    <linearGradient id="linear-gradient-3" x1="18.45" y1="20.27" x2="27.87" y2="20.27" xlink:href="#linear-gradient"/>
  </defs>
  <g id="Objects">
    <g>
      <g>
        <path class="cls-1" d="M12.63,24.44v.64h-.03v.02H2.96l.16-.77c.03-.14,.06-.27,.09-.4,.03-.12,.06-.25,.1-.37l.02-.07,.02-.07c.03-.1,.06-.19,.08-.28h0s0-.01,0-.01c.02-.08,.05-.15,.08-.23,.03-.08,.06-.17,.09-.25,.04-.1,.08-.21,.12-.32,.04-.09,.08-.18,.12-.28,.02-.04,.03-.08,.05-.11,.04-.09,.08-.17,.12-.25,.02-.03,.03-.07,.05-.1,.04-.08,.08-.17,.13-.25,.02-.03,.03-.07,.06-.11,0,0,0,0,0,0h0s0-.02,0-.02c.06-.11,.11-.2,.16-.29,.05-.09,.1-.17,.16-.26l.02-.03s.03-.05,.05-.08l.02-.03c.06-.09,.12-.19,.18-.28,.07-.1,.15-.21,.23-.32,.05-.08,.11-.16,.19-.25h0s0-.01,0-.01l.02-.02s.05-.06,.07-.09c.06-.08,.13-.16,.2-.24,.02-.02,.03-.04,.04-.05,.07-.08,.14-.16,.22-.24,.02-.02,.04-.05,.07-.07,.07-.08,.15-.17,.26-.27,.8-.8,1.69-1.46,2.67-1.98H4.05c-1.25,1.27-2.24,2.74-2.94,4.38C.38,22.82,0,24.65,0,26.55v1.24s0,.21,0,.21H15.45V15.44h0v-2.3s0-9.4,0-9.4v-.64h.67s8.21,0,8.21,0h.78l-.16,.77c-.43,2.14-1.49,4.09-3.04,5.64-.33,.33-.67,.63-1.04,.91h4.09c.81-1.01,1.48-2.12,1.99-3.32,.73-1.72,1.1-3.56,1.11-5.45V.21S12.63,.21,12.63,.21V24.44Z"/>
        <path class="cls-3" d="M2.9,12.55V2.95l.76,.15c2.15,.43,4.11,1.48,5.67,3.04,.11,.11,.21,.22,.31,.33V2.63c-.85-.61-1.76-1.12-2.72-1.53C5.2,.37,3.36,0,1.47,0H0V14.59H9.65v-2.04H2.9Z"/>
        <path class="cls-2" d="M24.98,14.59v10.44l-.76-.15c-2.15-.42-4.11-1.47-5.67-3.04-.03-.03-.07-.07-.1-.1v3.77c.78,.54,1.62,1,2.51,1.37,1.73,.73,3.56,1.1,5.45,1.1h1.47V12.55h-9.42v2.04h6.53Z"/>
      </g>
      <g>
        <path d="M37.52,12.91v1.48h-2.94V2.6h1.48V12.91h1.47Z"/>
        <path d="M39.94,5.35c.55,0,1.02,.19,1.41,.58s.59,.86,.59,1.41v5.26c0,.54-.2,1.01-.59,1.41s-.86,.58-1.41,.58-1.01-.19-1.41-.58c-.39-.39-.58-.86-.58-1.41V7.34c0-.54,.19-1.01,.58-1.41,.39-.39,.86-.58,1.41-.58Zm-.49,7.43c0,.13,.05,.25,.15,.34,.09,.09,.21,.14,.34,.14s.25-.05,.35-.14c.09-.09,.14-.21,.14-.34V7.16c0-.13-.05-.25-.14-.34-.1-.09-.22-.14-.35-.14s-.25,.05-.34,.14c-.1,.09-.15,.21-.15,.34v5.62Z"/>
        <path d="M44.83,7.02h-.49v7.37h-1.48V7.02h-.48v-1.47h.48V2.6h1.48v2.95h.49v1.47Z"/>
        <path d="M46.67,14.59c-.93,0-1.4-.66-1.4-1.99V5.56h1.5v7.22c0,.13,.05,.25,.14,.34s.21,.14,.34,.14,.25-.05,.35-.14c.09-.09,.14-.21,.14-.34V5.56h1.5V14.4h-1.48v-.24l-.02,.02s-.03,.04-.05,.05c-.06,.05-.13,.1-.21,.15-.25,.14-.53,.21-.83,.21Z"/>
        <path d="M51.68,5.37c.55,0,1.02,.2,1.41,.59,.39,.39,.59,.86,.59,1.41v1.2h-1.5v-1.37c0-.13-.05-.25-.14-.35-.1-.09-.22-.14-.35-.14s-.25,.05-.34,.14c-.09,.1-.14,.22-.14,.35v1.44c0,.13,.04,.24,.11,.33,.09,.1,.2,.15,.33,.15h.28c.76,0,1.28,.35,1.56,1.06,.09,.22,.15,.47,.18,.74,0,.08,.01,.16,.02,.24v1.63h0c-.05,.52-.26,.95-.64,1.29s-.83,.52-1.35,.52-.96-.17-1.34-.52-.59-.77-.64-1.27v-1.39h1.5v1.37c0,.13,.05,.25,.14,.34s.21,.14,.34,.14,.25-.05,.35-.14c.09-.09,.14-.21,.14-.34v-1.53c0-.32-.15-.48-.44-.48h-.1c-.56,0-1.04-.22-1.43-.66-.34-.38-.51-.82-.51-1.33v-1.42c0-.55,.19-1.02,.58-1.41s.86-.59,1.41-.59Z"/>
        <path d="M56.74,4.08v3.68h1.47v1.48h-1.47v3.67h1.47v1.48h-2.94V2.6h2.94v1.48h-1.47Z"/>
        <path d="M61.22,5.35c.94,0,1.41,.67,1.41,2v7.04h-1.5V7.17c0-.13-.05-.25-.14-.35-.1-.09-.22-.14-.35-.14s-.25,.05-.34,.14c-.1,.1-.15,.22-.15,.35v7.22h-1.49V5.55h1.48v.25s0-.01,0-.03,.03-.03,.05-.04c.06-.05,.13-.1,.21-.15,.25-.15,.53-.22,.83-.22Z"/>
        <path d="M67.35,6.53h-.27c.12,.26,.18,.54,.18,.82v3.74c0,.54-.2,1.01-.59,1.41s-.86,.58-1.41,.58c-.15,0-.31-.02-.47-.06-.05-.02-.1-.04-.16-.04h-.04c-.17,.01-.25,.08-.25,.21s.09,.2,.27,.2c0,0,.23,0,.67,0,.54,0,1.01,.21,1.39,.6,.39,.39,.58,.85,.58,1.4v1c0,.54-.2,1.01-.59,1.41s-.86,.58-1.41,.58-1.01-.19-1.4-.58-.59-.86-.59-1.41v-1c0-.39,.11-.76,.33-1.09l-.08-.06c-.12-.12-.22-.26-.3-.41-.1-.21-.15-.44-.15-.69v-.04s0-.06,0-.08c.01-.08,.03-.16,.06-.25,.08-.25,.22-.46,.42-.64-.19-.32-.29-.66-.29-1.03v-3.74c0-.55,.2-1.02,.59-1.41,.39-.39,.85-.58,1.4-.58,.32,0,.62,.07,.91,.21h1.19v.96Zm-1.6,.64c0-.13-.05-.25-.14-.34-.09-.1-.21-.15-.35-.15s-.25,.05-.34,.15c-.09,.09-.14,.21-.14,.34v4.09c0,.13,.05,.25,.14,.34s.21,.14,.34,.14,.26-.05,.35-.14,.14-.21,.14-.34V7.17Zm-.98,9.39c0,.13,.05,.25,.14,.34s.21,.14,.34,.14,.26-.05,.35-.14,.14-.21,.14-.34v-1.35c0-.13-.05-.25-.14-.35-.09-.09-.21-.14-.35-.14s-.25,.05-.34,.14c-.09,.1-.14,.22-.14,.35v1.35Z"/>
        <path d="M69.27,5.06h-1.48v-1.56h1.48v1.56Zm0,9.33h-1.48V5.55h1.48V14.39Z"/>
        <path d="M72.28,5.35c.94,0,1.41,.67,1.41,2v7.04h-1.5V7.17c0-.13-.05-.25-.14-.35-.1-.09-.22-.14-.35-.14s-.25,.05-.34,.14c-.1,.1-.15,.22-.15,.35v7.22h-1.49V5.55h1.48v.25s0-.01,0-.03,.03-.03,.05-.04c.06-.05,.13-.1,.21-.15,.25-.15,.53-.22,.83-.22Z"/>
        <path d="M76.11,5.35c.55,0,1.02,.19,1.41,.58s.59,.86,.59,1.41v3.01h-2.49v2.43c0,.13,.05,.25,.15,.34,.09,.09,.21,.14,.34,.14s.25-.05,.35-.14c.09-.09,.14-.21,.14-.34v-1.78h1.5v1.61c0,.54-.2,1.01-.59,1.41s-.86,.58-1.41,.58-1.01-.19-1.41-.58c-.39-.39-.58-.86-.58-1.41V7.34c0-.54,.19-1.01,.58-1.41,.39-.39,.86-.58,1.41-.58Zm.49,3.52v-1.71c0-.13-.05-.25-.14-.34-.1-.09-.22-.14-.35-.14s-.25,.05-.34,.14c-.1,.09-.15,.21-.15,.34v1.71h.98Z"/>
        <path d="M80.53,5.35c.55,0,1.02,.19,1.41,.58s.59,.86,.59,1.41v3.01h-2.49v2.43c0,.13,.05,.25,.15,.34,.09,.09,.21,.14,.34,.14s.25-.05,.35-.14c.09-.09,.14-.21,.14-.34v-1.78h1.5v1.61c0,.54-.2,1.01-.59,1.41s-.86,.58-1.41,.58-1.01-.19-1.41-.58c-.39-.39-.58-.86-.58-1.41V7.34c0-.54,.19-1.01,.58-1.41,.39-.39,.86-.58,1.41-.58Zm.49,3.52v-1.71c0-.13-.05-.25-.14-.34-.1-.09-.22-.14-.35-.14s-.25,.05-.34,.14c-.1,.09-.15,.21-.15,.34v1.71h.98Z"/>
        <path d="M85.01,6.79c-.13,0-.26,.05-.37,.14-.12,.1-.18,.21-.18,.34v7.12h-1.49V5.55h1.48v.34s0,0,0-.02l.04-.04c.06-.05,.12-.09,.19-.14,.23-.13,.48-.21,.75-.23v1.45c-.05-.08-.19-.12-.43-.12Z"/>
        <path d="M87.35,5.06h-1.48v-1.56h1.48v1.56Zm0,9.33h-1.48V5.55h1.48V14.39Z"/>
        <path d="M90.37,5.35c.94,0,1.41,.67,1.41,2v7.04h-1.5V7.17c0-.13-.05-.25-.14-.35-.1-.09-.22-.14-.35-.14s-.25,.05-.34,.14c-.1,.1-.15,.22-.15,.35v7.22h-1.49V5.55h1.48v.25s0-.01,0-.03,.03-.03,.05-.04c.06-.05,.13-.1,.21-.15,.25-.15,.53-.22,.83-.22Z"/>
        <path d="M96.49,6.53h-.27c.12,.26,.18,.54,.18,.82v3.74c0,.54-.2,1.01-.59,1.41s-.86,.58-1.41,.58c-.15,0-.31-.02-.47-.06-.05-.02-.1-.04-.16-.04h-.04c-.17,.01-.25,.08-.25,.21s.09,.2,.27,.2c0,0,.23,0,.67,0,.54,0,1.01,.21,1.39,.6,.39,.39,.58,.85,.58,1.4v1c0,.54-.2,1.01-.59,1.41s-.86,.58-1.41,.58-1.01-.19-1.4-.58-.59-.86-.59-1.41v-1c0-.39,.11-.76,.33-1.09l-.08-.06c-.12-.12-.22-.26-.3-.41-.1-.21-.15-.44-.15-.69v-.04s0-.06,0-.08c.01-.08,.03-.16,.06-.25,.08-.25,.22-.46,.42-.64-.19-.32-.29-.66-.29-1.03v-3.74c0-.55,.2-1.02,.59-1.41,.39-.39,.85-.58,1.4-.58,.32,0,.62,.07,.91,.21h1.19v.96Zm-1.6,.64c0-.13-.05-.25-.14-.34-.09-.1-.21-.15-.35-.15s-.25,.05-.34,.15c-.09,.09-.14,.21-.14,.34v4.09c0,.13,.05,.25,.14,.34s.21,.14,.34,.14,.26-.05,.35-.14,.14-.21,.14-.34V7.17Zm-.98,9.39c0,.13,.05,.25,.14,.34s.21,.14,.34,.14,.26-.05,.35-.14,.14-.21,.14-.34v-1.35c0-.13-.05-.25-.14-.35-.09-.09-.21-.14-.35-.14s-.25,.05-.34,.14c-.09,.1-.14,.22-.14,.35v1.35Z"/>
        <path d="M36.56,24.7h.02s.02-.02,.02-.02v.82h-.04s-.06,.01-.06,.01c-.33,0-.62-.12-.86-.35-.24-.24-.35-.53-.35-.86v-5.02c0-.33,.12-.62,.35-.86,.24-.24,.53-.35,.86-.35h.11v.83h-.02s-.02-.02-.02-.02c-.02,0-.04-.01-.06-.01-.08,0-.15,.03-.21,.09-.06,.06-.09,.13-.09,.21v5.23c0,.08,.03,.15,.09,.21s.13,.09,.21,.09c.02,0,.04,0,.06,0Z"/>
        <path d="M39.17,22.03c0,.1,0,.19,0,.26-.01,.19-.04,.34-.08,.46-.1,.29-.33,.44-.68,.44h-.64v2.2h-.9v-7.2h1.54c.35,0,.58,.15,.68,.44,.04,.12,.06,.27,.08,.46,0,.07,0,.16,0,.26v2.69Zm-.89-2.55c0-.16-.05-.27-.16-.33-.05-.03-.1-.04-.16-.04h-.2v3.15h.2c.05,0,.11,0,.16-.04,.1-.06,.16-.17,.16-.33v-2.41Z"/>
        <path d="M40.68,20.74c-.08,0-.16,.03-.23,.09-.07,.06-.11,.13-.11,.21v4.35h-.91v-5.4h.9v.21s0,0,0-.01l.03-.03s.08-.06,.12-.09c.14-.08,.29-.13,.46-.14v.89c-.03-.05-.12-.08-.26-.08Z"/>
        <path d="M42.12,19.69h-.9v-.95h.9v.95Zm0,5.7h-.9v-5.4h.9v5.4Z"/>
        <path d="M45.09,19.99l-.9,5.4h-.9l-.9-5.4h.9l.45,2.7,.45-2.7h.9Z"/>
        <path d="M46.41,19.87c.34,0,.62,.12,.86,.35s.36,.53,.36,.86v4.31h-.69c-.17,.08-.34,.12-.53,.12s-.36-.04-.53-.12c-.2-.1-.37-.25-.49-.44-.13-.2-.19-.41-.19-.65v-.85c0-.06,0-.12,.02-.18,.04-.26,.18-.5,.4-.71,.08-.08,.18-.15,.28-.23,.04-.03,.12-.08,.24-.15l.59-.33v-.86c0-.08-.03-.15-.09-.21-.06-.06-.13-.09-.21-.09s-.15,.03-.21,.09c-.06,.06-.09,.13-.09,.21v1.02h-.91v-.91c0-.33,.12-.62,.35-.86,.24-.24,.53-.35,.86-.35Zm.29,4.61s.01-.05,.01-.07v-1.51l-.05,.03-.06,.03c-.22,.12-.37,.27-.44,.46-.04,.09-.06,.17-.05,.24v.76c0,.08,.03,.15,.09,.21,.06,.06,.13,.09,.21,.09h.06s.02-.01,.02-.01h.03s.03-.02,.03-.02l.02-.02,.02-.02,.02-.02,.02-.02h.01s.05-.09,.06-.13Z"/>
        <path d="M49.39,20.89h-.3v4.5h-.9v-4.5h-.3v-.9h.3v-1.8h.9v1.8h.3v.9Z"/>
        <path d="M50.77,19.87c.34,0,.62,.12,.86,.35s.36,.53,.36,.86v1.84h-1.52v1.48c0,.08,.03,.15,.09,.21,.06,.06,.13,.09,.21,.09s.15-.03,.21-.09c.06-.06,.09-.13,.09-.21v-1.09h.92v.98c0,.33-.12,.62-.36,.86s-.52,.35-.86,.35-.62-.12-.86-.35c-.24-.24-.35-.53-.35-.86v-3.22c0-.33,.12-.62,.35-.86,.24-.24,.53-.35,.86-.35Zm.3,2.15v-1.05c0-.08-.03-.15-.09-.21-.06-.06-.13-.09-.21-.09s-.15,.03-.21,.09c-.06,.06-.09,.13-.09,.21v1.05h.6Z"/>
        <path d="M52.36,24.71c.08,0,.15-.03,.21-.09,.06-.06,.09-.13,.09-.21v-5.23c0-.08-.03-.15-.09-.21-.06-.06-.13-.09-.21-.09-.02,0-.04,0-.06,.01h-.02s-.02,.02-.02,.02v-.83h.04s.06,0,.06,0c.34,0,.62,.12,.86,.35,.24,.24,.35,.53,.35,.86v5.02c0,.33-.12,.62-.35,.86-.24,.24-.52,.35-.86,.35h-.06s-.04-.01-.04-.01v-.82h.02s.02,.02,.02,.02c.02,0,.05,0,.06,0Z"/>
        <path d="M56.35,24.49v.9h-1.8v-7.2h.9v6.3h.9Z"/>
        <path d="M57.52,19.69h-.9v-.95h.9v.95Zm0,5.7h-.9v-5.4h.9v5.4Z"/>
        <path d="M60.89,19.87c.57,0,.85,.41,.85,1.22v4.3h-.91v-4.41c0-.08-.03-.15-.09-.21-.06-.06-.13-.09-.21-.09s-.15,.03-.21,.09c-.06,.06-.09,.13-.09,.21v4.41h-.92v-4.41c0-.08-.03-.15-.09-.21-.06-.06-.13-.09-.21-.09s-.15,.03-.21,.09c-.06,.06-.09,.13-.09,.21v4.41h-.91v-5.4h.9v.15s0,0,0-.02,.02-.02,.03-.03c.04-.03,.08-.06,.13-.09,.15-.09,.32-.13,.51-.13,.35,0,.59,.15,.73,.46,.02-.08,.07-.15,.15-.23,.16-.15,.37-.23,.64-.23Z"/>
        <path d="M62.91,19.69h-.9v-.95h.9v.95Zm0,5.7h-.9v-5.4h.9v5.4Z"/>
        <path d="M64.68,20.89h-.3v4.5h-.9v-4.5h-.3v-.9h.3v-1.8h.9v1.8h.3v.9Z"/>
        <path d="M66.05,19.87c.34,0,.62,.12,.86,.35s.36,.53,.36,.86v1.84h-1.52v1.48c0,.08,.03,.15,.09,.21,.06,.06,.13,.09,.21,.09s.15-.03,.21-.09c.06-.06,.09-.13,.09-.21v-1.09h.92v.98c0,.33-.12,.62-.36,.86s-.52,.35-.86,.35-.62-.12-.86-.35c-.24-.24-.35-.53-.35-.86v-3.22c0-.33,.12-.62,.35-.86,.24-.24,.53-.35,.86-.35Zm.3,2.15v-1.05c0-.08-.03-.15-.09-.21-.06-.06-.13-.09-.21-.09s-.15,.03-.21,.09c-.06,.06-.09,.13-.09,.21v1.05h.6Z"/>
        <path d="M69.98,18.19v6.11c0,.33-.12,.62-.36,.86s-.52,.35-.86,.35-.62-.12-.86-.35c-.24-.24-.35-.53-.35-.86v-3.22c0-.33,.12-.62,.35-.86,.24-.24,.53-.35,.86-.35,.1,0,.21,.01,.32,.04v-1.72h.9Zm-.92,2.79c0-.08-.03-.15-.09-.21-.06-.06-.13-.09-.21-.09s-.15,.03-.21,.09-.09,.13-.09,.21v3.43c0,.08,.03,.15,.09,.21s.13,.09,.21,.09,.15-.03,.21-.09c.06-.06,.09-.13,.09-.21v-3.43Z"/>
      </g>
    </g>
  </g>
</svg>