<?xml version="1.0" encoding="utf-8"?>
<!-- Generator: Adobe Illustrator 26.4.1, SVG Export Plug-In . SVG Version: 6.00 Build 0)  -->
<svg version="1.1" id="Layer_2_00000022525796017891637990000013038906829365965212_"
	 xmlns="http://www.w3.org/2000/svg" xmlns:xlink="http://www.w3.org/1999/xlink" x="0px" y="0px" viewBox="0 0 86.4 14.4"
	 style="enable-background:new 0 0 86.4 14.4;" xml:space="preserve">
<g id="Layer_2-2">
	<g id="Layer_1-2">
		<g>
			<g>
				<g>
					<polygon points="0,14.4 14.4,0 17.4,3 6,14.4 					"/>
					<polygon points="9.7,14.4 24.2,0 27.2,3 22.4,7.7 28.8,14.4 23,14.4 19.4,10.7 15.8,14.4 					"/>
				</g>
				<polygon points="38.7,14.4 29.1,4.7 26,7.8 32.6,14.4 				"/>
			</g>
			<g>
				<g>
					<path d="M48.6,9.5h-1L46,2v7.5h-0.9V0.1h1.5l1.6,7.5l1.5-7.5h1.5v9.4h-1V1.9C50.1,1.9,48.6,9.5,48.6,9.5z"/>
					<path d="M53.4,0.1v9.4h-1V0.1H53.4z"/>
					<path d="M58.9,2.4v0.8h-1V2.3c0-0.8-0.3-1.4-1.1-1.4s-1.1,0.5-1.1,1.4v5c0,0.8,0.4,1.4,1.1,1.4s1.1-0.5,1.1-1.4V6.1h1v1.2
						c0,1.4-0.7,2.4-2.1,2.4s-2.1-1-2.1-2.4V2.4c0-1.4,0.7-2.4,2.1-2.4S58.9,1,58.9,2.4z"/>
					<path d="M62.2,0.1c1.5,0,2.1,0.8,2.1,2.2V3c0,1-0.4,1.7-1.2,1.9c0.9,0.2,1.2,1,1.2,2v1.5c0,0.4,0,0.8,0.2,1.1h-1.1
						c-0.1-0.3-0.2-0.5-0.2-1.2V6.9c0-1.1-0.5-1.4-1.4-1.4h-0.8v4h-1V0.1C60.2,0.1,62.2,0.1,62.2,0.1z M62,4.5
						c0.8,0,1.3-0.3,1.3-1.3V2.4c0-0.8-0.3-1.3-1.1-1.3h-1v3.5L62,4.5C62,4.5,62,4.5,62,4.5z"/>
					<path d="M65.6,2.4c0-1.4,0.7-2.4,2.2-2.4s2.2,0.9,2.2,2.4v4.9c0,1.4-0.7,2.4-2.2,2.4s-2.2-1-2.2-2.4V2.4z M66.6,7.3
						c0,0.9,0.4,1.4,1.1,1.4s1.1-0.5,1.1-1.4v-5c0-0.8-0.4-1.4-1.1-1.4s-1.1,0.5-1.1,1.4V7.3C66.6,7.3,66.6,7.3,66.6,7.3z"/>
					<path d="M72.5,9.5V1h-1.7v-1h4.5v1h-1.7v8.5C73.6,9.5,72.5,9.5,72.5,9.5z"/>
					<path d="M79.6,4.3v0.9h-2.3v3.4h2.8v1h-3.9V0.1h3.9v1h-2.8v3.2C77.3,4.3,79.6,4.3,79.6,4.3z"/>
					<path d="M83.7,5.4l-1.6,4.1h-1l1.9-4.9l-1.8-4.6h1.1l1.4,3.8l1.5-3.8h1l-1.8,4.6l1.9,4.9h-1.1L83.7,5.4
						C83.7,5.4,83.7,5.4,83.7,5.4z"/>
				</g>
				<g>
					<path d="M45.3,11.5v2.9H45v-2.9H45.3z"/>
					<path d="M47.8,14.4h-0.3v-2.9H48l0.7,2.1v-2.1h0.3v2.9h-0.3L47.9,12L47.8,14.4L47.8,14.4z"/>
					<path d="M51.6,14.4v-2.6H51v-0.3h1.4v0.3h-0.5v2.6C51.9,14.4,51.6,14.4,51.6,14.4z"/>
					<path d="M55.6,12.8V13h-0.7v1h0.9v0.3h-1.2v-2.9h1.2v0.3h-0.9v1C54.8,12.8,55.6,12.8,55.6,12.8z"/>
					<path d="M58.6,11.5c0.4,0,0.6,0.2,0.6,0.6v0.3c0,0.3-0.1,0.5-0.4,0.6c0.3,0.1,0.4,0.3,0.4,0.6V14c0,0.1,0,0.2,0,0.4h-0.3
						c0-0.1,0-0.2,0-0.4v-0.4c0-0.3-0.2-0.4-0.4-0.4h-0.2v1.2h-0.3v-2.9L58.6,11.5C58.6,11.5,58.6,11.5,58.6,11.5z M58.5,12.8
						c0.2,0,0.4-0.1,0.4-0.4v-0.3c0-0.2-0.1-0.4-0.3-0.4h-0.3v1.1C58.2,12.8,58.5,12.8,58.5,12.8z"/>
					<path d="M61.7,14.4h-0.3v-2.9h0.4l0.7,2.1v-2.1h0.3v2.9h-0.3L61.8,12L61.7,14.4L61.7,14.4z"/>
					<path d="M65.4,13.8l-0.1,0.6H65l0.6-2.9H66l0.6,2.9h-0.3l-0.1-0.6C66.1,13.8,65.4,13.8,65.4,13.8z M65.4,13.5H66l-0.3-1.6
						L65.4,13.5L65.4,13.5z"/>
					<path d="M69,14.4v-2.6h-0.5v-0.3h1.4v0.3h-0.5v2.6C69.3,14.4,69,14.4,69,14.4z"/>
					<path d="M72.2,11.5v2.9h-0.3v-2.9H72.2z"/>
					<path d="M74.5,12.2c0-0.4,0.2-0.7,0.6-0.7s0.7,0.3,0.7,0.7v1.5c0,0.4-0.2,0.7-0.7,0.7s-0.6-0.3-0.6-0.7
						C74.5,13.7,74.5,12.2,74.5,12.2z M74.8,13.7c0,0.3,0.1,0.4,0.4,0.4s0.4-0.2,0.4-0.4v-1.5c0-0.2-0.1-0.4-0.4-0.4
						s-0.4,0.2-0.4,0.4V13.7z"/>
					<path d="M78.3,14.4H78v-2.9h0.4l0.7,2.1v-2.1h0.3v2.9H79L78.3,12L78.3,14.4L78.3,14.4z"/>
					<path d="M81.9,13.8l-0.1,0.6h-0.3l0.6-2.9h0.5l0.6,2.9h-0.3l-0.1-0.6C82.7,13.8,81.9,13.8,81.9,13.8z M82,13.5h0.6l-0.3-1.6
						L82,13.5L82,13.5z"/>
					<path d="M85.2,14.4v-2.9h0.3v2.6h0.8v0.3C86.4,14.4,85.2,14.4,85.2,14.4z"/>
				</g>
			</g>
			<rect x="41.1" y="0" width="0.8" height="14.4"/>
		</g>
	</g>
</g>
</svg>
