<?xml version="1.0" encoding="UTF-8"?>
<svg id="Layer_2" data-name="Layer 2" xmlns="http://www.w3.org/2000/svg" xmlns:xlink="http://www.w3.org/1999/xlink" viewBox="0 0 42.73 42.02">
  <defs>
    <style>
      .cls-1 {
        fill: url(#linear-gradient);
      }

      .cls-2 {
        letter-spacing: 0em;
      }

      .cls-3 {
        font-family: BarlowCondensed-Bold, 'Barlow Condensed';
        font-size: 10.19px;
      }

      .cls-4 {
        fill: url(#linear-gradient-2);
      }
    </style>
    <linearGradient id="linear-gradient" x1="6.84" y1="12.49" x2="31.54" y2="12.49" gradientUnits="userSpaceOnUse">
      <stop offset="0" stop-color="#000"/>
      <stop offset=".33" stop-color="#000"/>
      <stop offset=".52" stop-color="#000"/>
      <stop offset=".73" stop-color="#000"/>
      <stop offset="1" stop-color="#000"/>
    </linearGradient>
    <linearGradient id="linear-gradient-2" x1="11.19" y1="16.55" x2="35.88" y2="16.55" xlink:href="#linear-gradient"/>
  </defs>
  <g id="Layer_2-2" data-name="Layer 2">
    <g>
      <g>
        <path class="cls-1" d="M7.01,12.3h0s0,.03,0,.03c0,.02,0,.05-.01,.08h0s0,0,0,0h0s0,.01,0,.02c0,.01,0,.03,0,.04v.04s0,0,0,0h0s0,.01,0,.01h0s0,.01,0,.01h0s0,.01,0,.01h0s0,.01,0,.01h0c0,.05-.01,.1-.02,.15,0,.04,0,.09-.01,.13,0,.02,0,.03,0,.05h0s0,0,0,0h0c0,.05-.01,.11-.02,.16,0,.04,0,.08-.01,.12h0s0,.04,0,.04c0,.02,0,.03,0,.05,0,.02,0,.03,0,.05,0,0,0,.02,0,.03,0,.01,0,.03,0,.04,0,.02,0,.03,0,.05,0,0,0,.01,0,.02,0,.05,0,.11-.01,.17h0s0,0,0,0h0s0,.06,0,.08c0,.03,0,.06,0,.09h0s0,0,0,0h0s0,.01,0,.02c0,0,0,.01,0,.02h0s0,.01,0,.01h0s0,.07,0,.11c0,.01,0,.03,0,.04,0,.06,0,.11,0,.17,0,0,0,.02,0,.03v.02s0,.09,0,.14v.03s0,.01,0,.01h0v.05s0,.03,0,.04c0,.01,0,.02,0,.03s0,.02,0,.03c0,.01,0,.03,0,.04v.09c.04,2.76,1.15,5.35,3.12,7.29,1.97,1.94,4.58,3.01,7.35,3.01,.44,0,.88-.03,1.31-.08,.2-.02,.39-.05,.58-.09,0,0,0,0,0,0-1.43-.87-2.67-2.02-3.64-3.42-.35-.51-.66-1.03-.93-1.58-.06-.12-.12-.25-.17-.37,0-.01-.01-.03-.02-.04-.68-1.53-1.03-3.18-1.03-4.88,0-2.47,.75-4.85,2.16-6.87,.32-.46,.68-.9,1.06-1.31,1.24-1.33,2.76-2.37,4.47-3.03,.52-.2,1.05-.36,1.59-.49,.9-.21,1.82-.32,2.75-.32,2.19,0,4.28,.58,6.12,1.67,0,0,0,0,0,0,0,0,0,0,0,0-.02-.02-.03-.03-.05-.05-.02-.02-.05-.04-.07-.07,0,0-.01-.01-.02-.02h0s0,0,0,0h0s0,0,0,0c-.02-.02-.04-.04-.06-.06-.02-.02-.04-.04-.07-.06h0s0,0,0,0h0s0-.01-.01-.02c-.03-.02-.05-.05-.08-.07h0s-.03-.04-.03-.04c0,0-.01,0-.02-.02-.04-.03-.07-.07-.11-.1-.04-.04-.08-.07-.12-.11-.01-.01-.03-.02-.04-.03-.03-.02-.06-.05-.08-.07l-.06-.05-.03-.03h0s-.02-.02-.02-.02h-.01s-.07-.06-.1-.09h0s0,0,0,0h0s0,0,0,0c-.02-.02-.05-.04-.07-.06h0s0,0,0,0h0s0,0,0,0c-.08-.06-.16-.13-.24-.19h0s0,0,0,0c-.02-.02-.04-.03-.07-.05l-.03-.02h-.02s0-.02-.01-.02c0,0,0,0,0,0h0s0,0,0,0h0s0,0,0,0l-.05-.03h-.02s-.06-.06-.06-.06c0,0-.01,0-.02-.01-.01,0-.02-.02-.04-.03l-.03-.02h0s0,0,0,0h0s0,0,0,0c-.02-.02-.05-.04-.07-.05,0,0-.01,0-.02-.01h0s0,0,0,0c-.06-.04-.12-.08-.18-.13h0s0,0,0,0h0s-.05-.04-.08-.06c0,0-.01,0-.02-.01h0s0,0,0,0c-.04-.03-.08-.05-.12-.08,0,0,0,0,0,0h0s0,0,0,0h0s-.02-.01-.03-.02c-.03-.02-.06-.04-.09-.06h0s0,0,0,0h0s-.09-.06-.13-.09h0s0,0,0,0h0s-.09-.06-.14-.09l-.07-.04h0s-.02-.01-.03-.02c-.01,0-.03-.02-.04-.03h0s0,0,0,0h0s0,0,0,0c0,0-.02,0-.03-.01-.03-.02-.07-.04-.1-.06h-.03s-.02-.03-.03-.03c-.03-.02-.06-.04-.09-.05,0,0,0,0,0,0-.21-.12-.42-.23-.63-.33,0,0,0,0-.01,0h0s0,0,0,0h0s-.09-.05-.14-.07l-.12-.06h0s0,0-.01,0c0,0,0,0,0,0h0s0,0,0,0h0c-.15-.07-.28-.13-.41-.19h0s0,0,0,0h0s0,0,0,0c-.03-.01-.06-.03-.09-.04h-.01s0,0,0,0h0s0,0,0,0l-.06-.02s-.04-.02-.06-.02c0,0-.02,0-.03-.01-.14-.06-.25-.1-.36-.14l-.06-.02h0s-.07-.03-.07-.03c-.18-.06-.36-.13-.55-.19h0s0,0,0,0c0,0,0,0,0,0-.04-.01-.07-.02-.11-.03-.04-.01-.07-.02-.11-.03-.02,0-.04-.01-.06-.02-.08-.02-.16-.05-.23-.07h0s0,0,0,0h0s0,0,0,0c0,0-.02,0-.03,0-.02,0-.03,0-.05-.01h0s-.01,0-.01,0c-.15-.04-.31-.08-.46-.11-.09-.02-.18-.04-.28-.06-.16-.03-.31-.07-.47-.09-.06-.01-.12-.02-.18-.03h0s0,0,0,0h0c-.06-.01-.12-.02-.18-.03-.03,0-.05,0-.08-.01-.03,0-.07-.01-.1-.02-.17-.02-.34-.04-.5-.06-.33-.03-.65-.06-.98-.07-.18,0-.36-.01-.55-.01-.31,0-.62,.01-.92,.03-.03,0-.06,0-.1,0-.34,.02-.68,.06-1.01,.11-.06,0-.12,.02-.18,.03,0,0,0,0,0,0,0,0,0,0,0,0h0L7.01,12.3h0Z"/>
        <path class="cls-4" d="M35.72,16.72h0s0-.02,0-.02c0-.02,0-.04,0-.06h0s0-.01,0-.01h0s0-.06,.01-.09v-.02s0-.02,0-.02c0,0,0-.02,0-.02v-.09s.02-.06,.02-.06c0-.06,.01-.12,.02-.17h0c0-.06,.01-.11,.02-.16,0-.04,0-.08,.01-.12h0s0-.04,0-.04c0-.03,0-.06,0-.09h0s0-.02,0-.02c0-.04,0-.07,0-.11h0s0-.01,0-.01c0-.05,0-.11,.01-.17h0c0-.06,0-.12,.01-.17v-.02s0-.02,0-.02v-.02s0-.09,0-.14c0-.06,0-.12,0-.18h0v-.04s0-.09,0-.13v-.05h0s0-.08,0-.12c0-.04,0-.08,0-.12h0s0-.04,0-.04c-.04-2.76-1.15-5.35-3.11-7.29-1.97-1.94-4.58-3.01-7.35-3.01-.64,0-1.27,.06-1.89,.17,1.43,.87,2.67,2.03,3.64,3.42,1.41,2.02,2.16,4.4,2.16,6.87s-.75,4.85-2.16,6.87c-1.38,1.98-3.29,3.48-5.53,4.34-1.38,.54-2.84,.81-4.34,.81-2.19,0-4.28-.58-6.12-1.67h0s0,.01,0,.01h0s.02,.03,.03,.03l.03,.03s.05,.05,.07,.07h0s0,0,0,0c.04,.04,.09,.08,.13,.12h0s0,.01,0,.01c.03,.03,.06,.06,.09,.08h0s0,0,0,0c.05,.05,.11,.1,.16,.14h0s0,0,0,0c.04,.03,.07,.06,.11,.09h0s.02,.03,.02,.03h0s.1,.09,.1,.09l.02,.02h0s.06,.05,.08,.07h.01s.01,.02,.01,.02c.02,.02,.05,.04,.08,.07h.01s0,.02,0,.02c.02,.02,.04,.04,.06,.05h0s0,.01,0,.01c.08,.06,.16,.13,.24,.19,.02,.01,.04,.03,.05,.04,.02,.02,.04,.03,.06,.05,.01,0,.02,.02,.03,.02h.02s.06,.06,.1,.09l.03,.02s.03,.02,.05,.04h0s0,0,0,0c.02,.02,.05,.04,.07,.05l.03,.02c.06,.04,.12,.08,.18,.13h0s0,0,0,0c.03,.02,.05,.04,.08,.05h.02s.07,.06,.07,.06l.07,.05s.07,.05,.11,.07c.04,.02,.08,.05,.11,.07h.09l.16,.16s.05,.03,.08,.05c.05,.03,.1,.06,.15,.09h0s0,0,0,0c.04,.02,.08,.05,.12,.07,.21,.12,.43,.24,.65,.34,.05,.02,.1,.05,.14,.07,0,0,.01,0,.02,.01,.05,.02,.09,.04,.14,.06,.14,.06,.28,.13,.41,.19h0s0,0,0,0c.03,.01,.07,.03,.1,.04,.01,0,.02,0,.03,.01,.05,.02,.09,.04,.14,.06,.11,.05,.23,.09,.36,.14h0s0,0,0,0c.04,.01,.08,.03,.12,.04h0s0,0,0,0c.19,.07,.37,.13,.55,.19h0s0,0,0,0c.04,.01,.07,.02,.11,.03h0s0,0,0,0c.05,.02,.11,.03,.16,.05h.05c.06,.03,.13,.05,.19,.07,.04,.01,.07,.02,.1,.03h0c.4,.11,.81,.2,1.21,.27h0s0,0,0,0c.05,0,.1,.02,.17,.03h0c.06,.01,.12,.02,.17,.03h0s0,0,0,0c.06,0,.11,.02,.17,.03h0c.67,.09,1.35,.14,2.03,.14s1.36-.05,2.03-.14h.01c.05-.01,.11-.02,.16-.03h0s0,0,0,0l12.13-12.13s0-.01,0-.02Z"/>
      </g>
      <text class="cls-3" transform="translate(4.74 39.58)"><tspan x="0" y="0">O</tspan><tspan class="cls-2" x="4.82" y="0">S</tspan><tspan x="9.31" y="0">DCORP</tspan></text>
    </g>
  </g>
</svg>