<?xml version="1.0" encoding="utf-8"?>
<!-- Generator: Adobe Illustrator 26.4.1, SVG Export Plug-In . SVG Version: 6.00 Build 0)  -->
<svg version="1.1" id="Layer_2_00000124867568225770967450000007250916245716309931_"
	 xmlns="http://www.w3.org/2000/svg" xmlns:xlink="http://www.w3.org/1999/xlink" x="0px" y="0px" viewBox="0 0 51.1 15.4"
	 style="enable-background:new 0 0 51.1 15.4;" xml:space="preserve">
<style type="text/css">
	.st0{fill:none;stroke:#000000;stroke-miterlimit:10;}
</style>
<g>
	<path class="st0" d="M8.9,6.1L7.4,7.7l0,0L6.1,6.5c-0.6-0.6-1.7-0.6-2.3,0L2.5,7.7l0,0L1,6.1C0.4,5.5,0.4,4.4,1,3.8L3.8,1
		c0.6-0.6,1.7-0.6,2.3,0L9,3.8C9.6,4.4,9.6,5.5,8.9,6.1z"/>
	<path class="st0" d="M7.4,7.7L6.1,8.9c-0.6,0.6-1.7,0.6-2.3,0L2.6,7.7l0,0l1.2-1.2c0.6-0.6,1.7-0.6,2.3,0L7.4,7.7z"/>
	<path class="st0" d="M8.9,11.6l-2.8,2.8c-0.6,0.6-1.7,0.6-2.3,0L1,11.6C0.3,11,0.3,9.9,1,9.3l1.6-1.6L3.8,9c0.6,0.6,1.7,0.6,2.3,0
		l1.2-1.2l1.6,1.6C9.6,9.9,9.6,11,8.9,11.6L8.9,11.6z"/>
</g>
<g>
	<path d="M13.4,11.2v-1.1h6.1c0.6,0,0.9-0.2,0.9-0.6V8.6C20.3,8.2,20,8,19.4,8h-4.1c-1.6,0-2.2-0.7-2.2-1.7V5.9c0-1,0.6-1.7,2.2-1.7
		h5.9v1.1h-5.9c-0.6,0-0.9,0.2-0.9,0.6v0.4c0,0.4,0.3,0.6,0.9,0.6h4.1c1.6,0,2.2,0.7,2.2,1.7v0.9c0,1-0.6,1.7-2.2,1.7L13.4,11.2
		C13.4,11.2,13.4,11.2,13.4,11.2z"/>
	<path d="M30.5,11.2l-3.6-5.6l-3.7,5.6h-1.5l4.7-7h1l4.6,7H30.5L30.5,11.2z"/>
	<path d="M39.3,11.2l-1.7-3.1h-3.7v3.1h-1.3v-7h6c1.6,0,2.2,0.7,2.2,1.7v0.5c0,0.9-0.5,1.5-1.7,1.6l1.7,3.1L39.3,11.2L39.3,11.2
		L39.3,11.2z M39.4,5.9c0-0.4-0.3-0.6-0.9-0.6h-4.6v1.8h4.6c0.6,0,0.9-0.2,0.9-0.6V5.9L39.4,5.9L39.4,5.9z"/>
	<path d="M41.7,11.2v-0.9l7.1-4.9h-7.1V4.2h9.4v0.9L44,10.1h7.1v1.1C51.1,11.2,41.7,11.2,41.7,11.2z"/>
</g>
</svg>
