<?xml version="1.0" encoding="UTF-8"?>
<svg id="Layer_2" data-name="Layer 2" xmlns="http://www.w3.org/2000/svg" xmlns:xlink="http://www.w3.org/1999/xlink" viewBox="0 0 42.01 37.48">
  <defs>
    <style>
      .cls-1 {
        fill: url(#linear-gradient);
      }

      .cls-2 {
        fill: url(#linear-gradient-3);
      }

      .cls-3 {
        fill: url(#linear-gradient-2);
      }
    </style>
    <linearGradient id="linear-gradient" x1="0" y1="15.54" x2="20.51" y2="15.54" gradientUnits="userSpaceOnUse">
      <stop offset="0" stop-color="#000"/>
      <stop offset=".33" stop-color="#000"/>
      <stop offset=".52" stop-color="#000"/>
      <stop offset=".73" stop-color="#000"/>
      <stop offset="1" stop-color="#000"/>
    </linearGradient>
    <linearGradient id="linear-gradient-2" y1="18.74" x2="42.01" y2="18.74" xlink:href="#linear-gradient"/>
    <linearGradient id="linear-gradient-3" x1="22.58" y1="24.76" x2="42.01" y2="24.76" xlink:href="#linear-gradient"/>
  </defs>
  <g id="Objects">
    <g>
      <polygon class="cls-1" points="13.88 29.36 16.86 31.08 20.51 28.98 17.53 27.26 17.53 2 14.06 0 13.76 .18 0 8.12 0 12.33 13.88 4.31 13.88 29.36"/>
      <polygon class="cls-3" points="24.48 2 24.48 28.51 14.06 34.52 3.64 28.51 3.64 12.05 0 14.15 0 29.36 14.06 37.48 28.13 29.36 28.13 4.31 42.01 12.33 42.01 8.12 27.95 0 24.48 2"/>
      <polygon class="cls-2" points="26.23 32.28 22.58 34.39 27.95 37.48 42.01 29.36 42.01 14.15 38.37 12.05 38.37 27.26 27.95 33.28 26.23 32.28"/>
    </g>
  </g>
</svg>