<?xml version="1.0" encoding="utf-8"?>
<!-- Generator: Adobe Illustrator 26.4.1, SVG Export Plug-In . SVG Version: 6.00 Build 0)  -->
<svg version="1.1" id="Layer_2_00000090296062961685121020000012021443202670425995_"
	 xmlns="http://www.w3.org/2000/svg" xmlns:xlink="http://www.w3.org/1999/xlink" x="0px" y="0px" viewBox="0 0 16.7 14.4"
	 style="enable-background:new 0 0 16.7 14.4;" xml:space="preserve">
<g id="Layer_2-2_00000180360330776287629810000001650795010677053846_">
	<g id="Layer_2-2">
		<g id="Layer_1-2">
			<g>
				<path d="M6.9,3.8h2.2c0.1,0,0.2,0.1,0.2,0.2c0.4,0.7,0.8,1.4,1.2,2.1c0,0.1,0.1,0.1,0.1,0.2C10.7,6,10.9,5.8,11,5.6
					c1.1-1.8,2.1-3.6,3.2-5.4C14.3,0,14.4,0,14.6,0h1.9c0.1,0,0.2,0,0.2,0c-2,3.4-4,6.9-6.1,10.4C9.4,8.2,8.1,6,6.9,3.8L6.9,3.8
					L6.9,3.8z"/>
				<path d="M5.4,5.2H3.1C3,5.2,3,5.1,2.9,5.1C2,3.5,1.2,2,0.3,0.5C0.2,0.3,0.1,0.2,0,0h11.8c0.2,0,0.2,0.1,0.2,0.2
					c-0.3,0.5-0.6,1-0.8,1.6C11,1.9,10.9,2,10.8,2H3.9C3.7,2,3.6,2.1,3.7,2.2C4.2,3.2,4.8,4.2,5.4,5.2L5.4,5.2L5.4,5.2z"/>
				<path d="M8.4,14.4C8.2,14,8,13.7,7.8,13.3c-1.1-1.9-2.2-3.9-3.4-5.8c0,0-0.1-0.1-0.1-0.2s0.2,0,0.2,0h1.9c0.1,0,0.2,0,0.3,0.2
					c0.9,1.6,1.8,3.2,2.7,4.7c0.1,0.1,0.1,0.2,0,0.4C9,13.2,8.7,13.8,8.4,14.4z"/>
			</g>
		</g>
	</g>
</g>
</svg>
