<?xml version="1.0" encoding="utf-8"?>
<!-- Generator: Adobe Illustrator 26.4.1, SVG Export Plug-In . SVG Version: 6.00 Build 0)  -->
<svg version="1.1" id="Layer_2_00000042009425464916298540000009157541581392085404_"
	 xmlns="http://www.w3.org/2000/svg" xmlns:xlink="http://www.w3.org/1999/xlink" x="0px" y="0px" viewBox="0 0 105 40.5"
	 style="enable-background:new 0 0 105 40.5;" xml:space="preserve">
<style type="text/css">
	.st0{fill:none;stroke:#000000;stroke-miterlimit:10;}
</style>
<g id="Layer_2-2_00000078023759544913673190000008802359307420351134_">
	<g id="Layer_2-2">
		<g id="Layer_1-2">
			<g>
				<path class="st0" d="M43.4,2.3l-21.2,36L9.7,17.1c0.1,0.2,1.3,1.9,3,3.6L13,21c1.4,1.3,3.1,2.7,4.9,3.5c0,0,0.3,0.1,0.8,0.3
					c0.1,0,0.3,0.1,0.5,0.2h0.1c0.3,0.1,0.6,0.1,0.9,0.2c0.1,0,0.2,0,0.4,0.1h0.1c0.2,0,0.3,0,0.5,0.1h1.1c1.7,0,3.6-0.3,5.1-1.7
					c0,0,1-1,1.5-3l2.2-8.5c2.2-9.6,9.6-10,11.6-10l0,0C43,2.3,43.2,2.3,43.4,2.3L43.4,2.3z"/>
				<path class="st0" d="M18.7,24.8c-0.5-0.1-0.8-0.3-0.8-0.3C16,23.7,14.3,22.4,13,21c1.4,1.3,3.1,2.7,4.9,3.5
					C18,24.5,18.2,24.6,18.7,24.8z"/>
				<path class="st0" d="M20.3,25.3c-0.3,0-0.6-0.1-0.9-0.2C19.7,25.1,20,25.2,20.3,25.3z"/>
				<path class="st0" d="M42.8,2.3c-2,0-9.4,0.4-11.6,10L29,20.8c-0.5,2-1.5,3-1.5,3c-1.5,1.4-3.4,1.8-5.1,1.7h-1.1
					c-0.2,0-0.4,0-0.5-0.1h-0.1c-0.1,0-0.3,0-0.4-0.1c-0.3-0.1-0.6-0.1-0.9-0.2h-0.1c-0.2,0-0.4-0.1-0.5-0.2
					c-0.5-0.2-0.8-0.3-0.8-0.3c-1.9-0.8-3.6-2.1-4.9-3.5l-0.3-0.3c-1.8-1.8-2.9-3.4-3-3.6l0,0L1.2,2.6c0,0,7.9-1.4,11.5,4.4
					l6.7,11.4c0,0,2.6,5.3,5.7,0l7-11.9C32.1,6.4,34.9,1.9,42.8,2.3z"/>
				<path class="st0" d="M18,24.5c0,0,0.3,0.1,0.8,0.3C18.2,24.6,18,24.5,18,24.5c-1.9-0.8-3.6-2.1-4.9-3.5
					C14.4,22.4,16.1,23.7,18,24.5z"/>
				<path class="st0" d="M20.3,25.3c-0.3,0-0.6-0.1-0.9-0.2C19.7,25.1,20,25.2,20.3,25.3z"/>
			</g>
			<g>
				<path d="M55.2,4.7h2l-2.1,13.8h-3.2L49.8,4.7H52L53.7,16L55.2,4.7L55.2,4.7z"/>
				<path d="M63.4,10.6v1.9h-3v4h3.8v2h-6V4.7h5.9v2h-3.8v3.8L63.4,10.6C63.4,10.5,63.4,10.6,63.4,10.6z"/>
				<path d="M66,5.5c0.5-0.6,1.3-0.9,2.4-0.9s1.9,0.3,2.4,0.9s0.8,1.5,0.8,2.6v0.4h-2V7.9c0-0.5-0.1-0.8-0.3-1
					c-0.2-0.2-0.5-0.3-0.8-0.3s-0.6,0.1-0.8,0.3s-0.3,0.6-0.3,1c0,0.6,0.1,1.1,0.5,1.5c0.3,0.4,0.8,1,1.4,1.5c0.5,0.5,1,0.9,1.2,1.2
					c0.3,0.4,0.6,0.8,0.8,1.3s0.3,1.1,0.3,1.8c0,1.1-0.3,2-0.8,2.6c-0.6,0.6-1.4,0.9-2.4,0.9s-1.9-0.3-2.4-0.9
					c-0.6-0.6-0.8-1.5-0.8-2.6v-0.9h2v1c0,0.9,0.4,1.3,1.1,1.3s1.1-0.4,1.1-1.3c0-0.6-0.1-1.1-0.5-1.5c-0.3-0.4-0.8-1-1.4-1.5
					c-0.5-0.5-1-0.9-1.2-1.2c-0.3-0.4-0.6-0.8-0.8-1.3c-0.2-0.5-0.3-1.1-0.3-1.8C65.2,6.9,65.5,6.1,66,5.5L66,5.5L66,5.5z"/>
				<path d="M78.5,5.6C79,6.2,79.3,7,79.3,8.2V10c0,1.1-0.3,1.9-0.8,2.6c-0.5,0.6-1.3,0.9-2.4,0.9h-1v5.2h-2.2v-14h3.2
					C77.1,4.7,77.9,5,78.5,5.6L78.5,5.6z M75.1,11.4h1c0.3,0,0.6-0.1,0.8-0.3c0.2-0.2,0.3-0.5,0.3-1V8c0-0.5-0.1-0.8-0.3-1
					s-0.4-0.3-0.8-0.3h-1V11.4z"/>
				<path d="M85.6,10.6v1.9h-3v4h3.8v2h-5.9V4.7h5.9v2h-3.8v3.8L85.6,10.6C85.6,10.5,85.6,10.6,85.6,10.6z"/>
				<path d="M92.1,17.9v-3.2c0-0.6-0.1-1.1-0.3-1.3c-0.2-0.3-0.6-0.4-1.1-0.4h-0.8v5.6h-2.2V4.7H91c1.1,0,1.9,0.2,2.5,0.8
					s0.8,1.3,0.8,2.4V9c0,1.4-0.5,2.4-1.4,2.8c0.5,0.2,0.9,0.6,1.1,1c0.2,0.5,0.3,1.1,0.3,1.9v3.2c0,0.3,0.1,0.5,0.2,0.7h-2.3
					C92.2,18.3,92.1,18.1,92.1,17.9L92.1,17.9z M89.9,11h0.9c0.4,0,0.8-0.1,1-0.3s0.3-0.6,0.3-1.1V8.2c0-0.5-0.1-0.9-0.3-1.1
					s-0.5-0.3-0.9-0.3h-1V11L89.9,11z"/>
				<path d="M41.4,22.8c0.5-0.6,1.3-0.9,2.4-0.9s1.9,0.3,2.4,0.9s0.8,1.5,0.8,2.6v0.4h-2v-0.6c0-0.5-0.1-0.8-0.3-1s-0.5-0.3-0.8-0.3
					s-0.6,0.1-0.8,0.3s-0.3,0.6-0.3,1c0,0.6,0.1,1.1,0.5,1.5c0.3,0.4,0.8,1,1.4,1.5c0.5,0.5,1,0.9,1.2,1.2c0.3,0.4,0.6,0.8,0.8,1.3
					s0.3,1.1,0.3,1.8c0,1.1-0.3,2-0.8,2.6c-0.6,0.6-1.4,0.9-2.4,0.9s-1.9-0.3-2.4-0.9s-0.8-1.5-0.8-2.6v-0.9h2v1
					c0,0.9,0.4,1.3,1.1,1.3c0.8,0,1.1-0.4,1.1-1.3c0-0.6-0.1-1.1-0.5-1.5c-0.3-0.4-0.8-1-1.4-1.5c-0.5-0.5-1-0.9-1.2-1.2
					c-0.3-0.4-0.6-0.8-0.8-1.3s-0.3-1.1-0.3-1.8C40.6,24.2,40.8,23.4,41.4,22.8L41.4,22.8z"/>
				<path d="M48.9,22.8c0.6-0.6,1.4-0.9,2.5-0.9s1.9,0.3,2.5,0.9s0.9,1.5,0.9,2.6v7.2c0,1.1-0.3,1.9-0.9,2.6
					c-0.6,0.6-1.4,0.9-2.5,0.9s-1.9-0.3-2.5-0.9S48,33.7,48,32.6v-7.2C48.1,24.3,48.3,23.4,48.9,22.8z M51.3,34
					c0.8,0,1.1-0.5,1.1-1.4v-7.5c0-0.9-0.4-1.4-1.1-1.4c-0.8,0-1.1,0.5-1.1,1.4v7.5C50.2,33.6,50.6,34,51.3,34z"/>
				<path d="M58.2,22v11.9h3.6v2h-5.7V22C56,22,58.2,22,58.2,22z"/>
				<path d="M64.8,32.7c0,0.9,0.4,1.3,1.1,1.3s1.1-0.4,1.1-1.3V22h2v10.5c0,1.1-0.3,2-0.8,2.6c-0.6,0.6-1.4,0.9-2.4,0.9
					s-1.9-0.3-2.4-0.9c-0.6-0.6-0.8-1.5-0.8-2.6V22h2.2V32.7L64.8,32.7z"/>
				<path d="M76.7,22v2h-2.3v11.8h-2.2V24h-2.3v-2H76.7z"/>
				<path d="M79.8,22v13.8h-2.2V22H79.8z"/>
				<path d="M82.1,22.8c0.6-0.6,1.4-0.9,2.5-0.9s1.9,0.3,2.5,0.9s0.9,1.5,0.9,2.6v7.2c0,1.1-0.3,1.9-0.9,2.6
					c-0.6,0.6-1.4,0.9-2.5,0.9s-1.9-0.3-2.5-0.9c-0.6-0.6-0.9-1.5-0.9-2.6v-7.2C81.2,24.3,81.5,23.4,82.1,22.8z M84.5,34
					c0.8,0,1.1-0.5,1.1-1.4v-7.5c0-0.9-0.4-1.4-1.1-1.4s-1.1,0.5-1.1,1.4v7.5C83.4,33.6,83.7,34,84.5,34z"/>
				<path d="M91.2,35.8h-2V22h2.7l2.2,8.3V22H96v13.8h-2.2l-2.7-10L91.2,35.8L91.2,35.8z"/>
				<path d="M98.2,22.8c0.5-0.6,1.3-0.9,2.4-0.9s1.9,0.3,2.4,0.9s0.8,1.5,0.8,2.6v0.4h-2v-0.6c0-0.5-0.1-0.8-0.3-1s-0.5-0.3-0.8-0.3
					s-0.6,0.1-0.8,0.3s-0.3,0.6-0.3,1c0,0.6,0.1,1.1,0.5,1.5c0.3,0.4,0.8,1,1.4,1.5c0.5,0.5,1,0.9,1.2,1.2c0.3,0.4,0.6,0.8,0.8,1.3
					s0.3,1.1,0.3,1.8c0,1.1-0.3,2-0.8,2.6c-0.6,0.6-1.4,0.9-2.4,0.9s-1.9-0.3-2.4-0.9s-0.8-1.5-0.8-2.6v-0.9h2v1
					c0,0.9,0.4,1.3,1.1,1.3c0.8,0,1.1-0.4,1.1-1.3c0-0.6-0.1-1.1-0.5-1.5c-0.3-0.4-0.8-1-1.4-1.5c-0.5-0.5-1-0.9-1.2-1.2
					c-0.3-0.4-0.6-0.8-0.8-1.3s-0.3-1.1-0.3-1.8C97.4,24.2,97.7,23.4,98.2,22.8L98.2,22.8L98.2,22.8z"/>
			</g>
		</g>
	</g>
</g>
</svg>
